<svg width="43" height="43" viewBox="0 0 43 43" fill="none" xmlns="http://www.w3.org/2000/svg">
<path d="M32.25 39.4166H10.75C8.84932 39.4166 7.02645 38.6615 5.68244 37.3175C4.33843 35.9735 3.58337 34.1506 3.58337 32.2499V10.7499C3.58337 8.8492 4.33843 7.02633 5.68244 5.68232C7.02645 4.33831 8.84932 3.58325 10.75 3.58325H32.25C34.1508 3.58325 35.9736 4.33831 37.3176 5.68232C38.6616 7.02633 39.4167 8.8492 39.4167 10.7499V32.2499C39.4167 34.1506 38.6616 35.9735 37.3176 37.3175C35.9736 38.6615 34.1508 39.4166 32.25 39.4166ZM10.75 7.16659C9.79968 7.16659 8.88825 7.54411 8.21624 8.21612C7.54424 8.88812 7.16671 9.79956 7.16671 10.7499V32.2499C7.16671 33.2003 7.54424 34.1117 8.21624 34.7837C8.88825 35.4557 9.79968 35.8333 10.75 35.8333H32.25C33.2004 35.8333 34.1118 35.4557 34.7838 34.7837C35.4558 34.1117 35.8334 33.2003 35.8334 32.2499V10.7499C35.8334 9.79956 35.4558 8.88812 34.7838 8.21612C34.1118 7.54411 33.2004 7.16659 32.25 7.16659H10.75ZM28.2403 30.0569C27.4655 30.0881 26.6925 29.9613 25.9683 29.684C25.2441 29.4068 24.584 28.985 24.0281 28.4444C22.8642 27.1175 22.2672 25.3871 22.3654 23.6248C22.3294 21.9121 22.9404 20.2487 24.0765 18.9665C24.6704 18.3386 25.3904 17.8433 26.1892 17.5133C26.988 17.1832 27.8476 17.0257 28.7115 17.0512H29.129V13.4679C29.129 13.1884 29.3565 12.9608 29.636 12.959H31.9956C32.1266 12.9542 32.2546 12.999 32.354 13.0845C32.4024 13.1304 32.4406 13.1861 32.4659 13.2478C32.4913 13.3096 32.5032 13.3761 32.5009 13.4428V27.201C32.4919 27.6758 32.517 28.1506 32.5725 28.6218V28.6666C32.5753 28.7805 32.54 28.8921 32.4722 28.9837C32.4137 29.0556 32.3396 29.1132 32.2554 29.1521C31.012 29.7456 29.6521 30.0553 28.2743 30.0587L28.2403 30.0569ZM26.5991 20.8908L26.5902 20.9015C26.0227 21.6483 25.7372 22.5716 25.7839 23.5084C25.7104 24.4845 25.9923 25.4543 26.5776 26.2389C27.056 26.7656 27.7458 27.0523 28.4571 27.0165C28.6829 27.0198 28.9084 26.997 29.129 26.9484V20.0523C28.9617 20.0164 28.7911 19.999 28.6201 20.0003C28.2379 19.99 27.8581 20.0651 27.5085 20.2201C27.1589 20.3751 26.8482 20.606 26.5991 20.8961V20.8908ZM21.9032 29.8491H19.3035C19.1698 29.8578 19.0368 29.8245 18.9231 29.7538C18.8093 29.6831 18.7205 29.5786 18.6692 29.4549L18.293 28.6666L18.284 28.6469L17.9167 27.9141L17.802 27.6758C17.2305 26.4969 16.641 25.2821 16.0498 24.0315C15.2277 25.8529 14.3814 27.6633 13.511 29.4621V29.48L13.502 29.4961C13.4421 29.5966 13.3584 29.6809 13.2584 29.7416C13.1567 29.8023 13.04 29.8333 12.9215 29.8312H10.4652C10.3624 29.8362 10.2609 29.8076 10.1758 29.7498C10.0908 29.6919 10.0269 29.6079 9.99396 29.5105C9.97238 29.4363 9.96811 29.3581 9.98146 29.282C9.99482 29.2059 10.0254 29.1339 10.071 29.0715L14.0646 21.4372L10.2018 13.708C10.1498 13.6328 10.1202 13.5444 10.1164 13.4531C10.1126 13.3617 10.1348 13.2712 10.1803 13.192C10.2241 13.1201 10.2857 13.0607 10.3591 13.0196C10.4326 12.9785 10.5154 12.957 10.5995 12.9573H13.1688C13.2936 12.9506 13.4178 12.9791 13.5271 13.0397C13.6383 13.1075 13.724 13.2102 13.7708 13.3317C14.7311 15.3473 15.541 17.0942 16.2487 18.644C17.1284 16.6732 18.0636 14.6701 18.6907 13.3425L18.6997 13.3228L18.7104 13.3048V13.2851C18.7553 13.2085 18.8115 13.139 18.877 13.0791C18.9879 12.9866 19.1286 12.9375 19.273 12.9411H21.6792C21.7712 12.9387 21.862 12.9629 21.9405 13.0109C22.019 13.0589 22.082 13.1287 22.1217 13.2117C22.1534 13.2877 22.1662 13.3703 22.159 13.4523C22.1518 13.5344 22.1249 13.6135 22.0805 13.6829L18.2159 21.1846L22.3045 29.0679C22.3475 29.1364 22.3745 29.2137 22.3835 29.294C22.3925 29.3743 22.3833 29.4557 22.3565 29.532C22.3227 29.6247 22.2609 29.7047 22.1797 29.7609C22.0985 29.8171 22.0019 29.8466 21.9032 29.8455V29.8491Z" fill="#F26363"/>
</svg>
