<svg width="439" height="70" viewBox="0 0 439 70" fill="none" xmlns="http://www.w3.org/2000/svg">
<path d="M51.1875 22.4844C51.1875 22.9844 51.0938 23.5 50.9062 24.0312C50.75 24.5625 50.5469 25.0469 50.2969 25.4844C49.8906 25.5469 49.5156 25.6875 49.1719 25.9062C48.8594 26.125 48.6094 26.2656 48.4219 26.3281C48.0156 26.3906 47.5312 26.4219 46.9688 26.4219C46.4375 26.3906 45.9531 26.3906 45.5156 26.4219C44.6719 26.4844 43.8281 26.5781 42.9844 26.7031C42.1719 26.8281 41.3594 26.9844 40.5469 27.1719C40.4844 27.1719 40.4219 27.1875 40.3594 27.2188C40.2969 27.2188 40.2656 27.25 40.2656 27.3125C40.2656 27.375 40.2812 27.4375 40.3125 27.5C40.3438 27.5625 40.3594 27.625 40.3594 27.6875C40.3594 27.7812 40.2656 27.8281 40.0781 27.8281C39.7344 27.8281 39.5 27.7188 39.375 27.5C38.375 27.75 37.375 28.0156 36.375 28.2969C35.375 28.5469 34.375 28.7969 33.375 29.0469C32.875 29.1406 32.375 29.2344 31.875 29.3281C31.4062 29.4219 30.9219 29.5469 30.4219 29.7031C30.1719 29.7656 29.9219 29.875 29.6719 30.0312L28.9219 30.5C28.7656 30.4688 28.625 30.4531 28.5 30.4531C28.375 30.4219 28.25 30.4062 28.125 30.4062C27.5938 30.4062 27.0312 30.5156 26.4375 30.7344C25.8438 30.9219 25.3281 31.1875 24.8906 31.5312H24.5625C24.25 31.5312 24.0312 31.4844 23.9062 31.3906C23.625 31.3594 23.4531 31.4531 23.3906 31.6719C23.3281 31.8594 23.2188 32.0312 23.0625 32.1875C22 32.2812 20.9531 32.4688 19.9219 32.75C18.8906 33.0312 17.875 33.3438 16.875 33.6875C15.875 34 14.8594 34.3281 13.8281 34.6719C12.8281 34.9844 11.8125 35.2344 10.7812 35.4219C10.6562 36.0469 10.5938 36.7656 10.5938 37.5781C10.5938 38.2031 10.6406 38.9219 10.7344 39.7344C10.8594 40.5469 11.1094 41.2344 11.4844 41.7969V41.8906C11.4844 42.0469 11.4219 42.1562 11.2969 42.2188C11.1719 42.2812 11.1094 42.3906 11.1094 42.5469C11.1094 43.3594 11.1875 44.125 11.3438 44.8438C11.5312 45.5625 11.7188 46.2656 11.9062 46.9531C12.0938 47.6406 12.2656 48.3281 12.4219 49.0156C12.6094 49.7031 12.7031 50.4062 12.7031 51.125C12.7031 51.3125 12.6875 51.4844 12.6562 51.6406C12.6562 51.8281 12.6406 52.0156 12.6094 52.2031C12.7031 52.4844 12.8594 52.7188 13.0781 52.9062C13.2969 53.0938 13.4844 53.3125 13.6406 53.5625C13.6719 53.7188 13.6875 53.8594 13.6875 53.9844V54.4531C13.6875 54.9844 13.625 55.4531 13.5 55.8594C13.375 56.2656 13.2188 56.6406 13.0312 56.9844C12.8438 57.3594 12.6406 57.7188 12.4219 58.0625C12.2031 58.4375 12 58.8438 11.8125 59.2812C11.5 59.3438 11.25 59.375 11.0625 59.375C10.5938 59.375 10.2031 59.25 9.89062 59C9.60938 58.75 9.35938 58.4375 9.14062 58.0625C8.92188 57.7188 8.70312 57.3594 8.48438 56.9844C8.29688 56.6094 8.0625 56.2969 7.78125 56.0469C7.8125 55.8906 7.82812 55.75 7.82812 55.625C7.85938 55.5 7.875 55.3594 7.875 55.2031C7.875 54.5781 7.76562 53.9688 7.54688 53.375C7.35938 52.7812 7.14062 52.2188 6.89062 51.6875C6.85938 50.625 6.75 49.5781 6.5625 48.5469C6.375 47.5156 6.10938 46.5 5.76562 45.5C5.82812 45.125 5.875 44.7656 5.90625 44.4219C5.9375 44.0469 5.95312 43.6875 5.95312 43.3438C5.95312 42.4375 5.90625 41.5312 5.8125 40.625C5.71875 39.7188 5.70312 38.8125 5.76562 37.9062C5.67188 37.75 5.57812 37.625 5.48438 37.5312C5.39062 37.4062 5.3125 37.2656 5.25 37.1094H5.0625C4.59375 37.1094 4.14062 37.1562 3.70312 37.25C3.26562 37.3125 2.82812 37.3438 2.39062 37.3438C2.23438 37.3438 2.09375 37.3438 1.96875 37.3438C1.84375 37.3125 1.70312 37.2812 1.54688 37.25C1.20312 36.9062 0.9375 36.5156 0.75 36.0781C0.5625 35.6406 0.46875 35.1875 0.46875 34.7188C0.46875 34.0312 0.65625 33.4062 1.03125 32.8438C1.8125 32.6562 2.57812 32.4375 3.32812 32.1875C4.10938 31.9062 4.85938 31.5781 5.57812 31.2031C5.67188 30.7344 5.71875 30.2656 5.71875 29.7969C5.75 29.3281 5.92188 28.8906 6.23438 28.4844C6.14062 28.2344 5.98438 28.0156 5.76562 27.8281C5.57812 27.6094 5.48438 27.3594 5.48438 27.0781C5.48438 26.9219 5.51562 26.7188 5.57812 26.4688C5.89062 26.125 6.10938 25.6875 6.23438 25.1562C6.35938 24.625 6.46875 24.0625 6.5625 23.4688C6.65625 22.875 6.75 22.2812 6.84375 21.6875C6.96875 21.0938 7.17188 20.5625 7.45312 20.0938C7.39062 19.8438 7.34375 19.5781 7.3125 19.2969C7.28125 18.9844 7.26562 18.7031 7.26562 18.4531C7.26562 18.0781 7.28125 17.7031 7.3125 17.3281C7.375 16.9219 7.46875 16.5469 7.59375 16.2031C7.25 15.7969 6.96875 15.3281 6.75 14.7969C6.53125 14.2344 6.42188 13.6875 6.42188 13.1562C6.42188 12.125 6.92188 11.4688 7.92188 11.1875C7.89062 11.0625 7.85938 10.9531 7.82812 10.8594C7.82812 10.7656 7.82812 10.6719 7.82812 10.5781C7.82812 10.2969 7.90625 10.0312 8.0625 9.78125C8.21875 9.53125 8.34375 9.28125 8.4375 9.03125C8.28125 8.625 8.20312 8.28125 8.20312 8C8.20312 7.75 8.25 7.53125 8.34375 7.34375C8.4375 7.125 8.51562 6.89062 8.57812 6.64062C8.67188 6.32812 8.73438 6.04688 8.76562 5.79688C8.82812 5.54688 8.92188 5.32812 9.04688 5.14062C9.17188 4.95312 9.32812 4.8125 9.51562 4.71875C9.73438 4.625 10.0625 4.57812 10.5 4.57812C11.1875 4.57812 11.8438 4.79688 12.4688 5.23438C13.125 5.64062 13.625 6.10938 13.9688 6.64062C14.3125 6.60938 14.6094 6.54688 14.8594 6.45312C15.1406 6.32812 15.3906 6.21875 15.6094 6.125C15.8594 6.03125 16.1094 5.95312 16.3594 5.89062C16.6406 5.79688 16.9688 5.76562 17.3438 5.79688C17.4375 5.57812 17.5938 5.4375 17.8125 5.375C18.0625 5.28125 18.3125 5.21875 18.5625 5.1875C18.8125 5.125 19.0469 5.04688 19.2656 4.95312C19.4844 4.85938 19.625 4.6875 19.6875 4.4375C19.8125 4.53125 19.9531 4.57812 20.1094 4.57812C20.2656 4.57812 20.4219 4.5625 20.5781 4.53125C20.7344 4.46875 20.9062 4.4375 21.0938 4.4375C21.2812 4.4375 21.4375 4.5 21.5625 4.625C22.375 4.1875 23.2344 3.875 24.1406 3.6875C25.0781 3.46875 26 3.34375 26.9062 3.3125C29.0625 2.125 31.3281 1.3125 33.7031 0.875C36.1094 0.4375 38.5156 0.21875 40.9219 0.21875C41.2656 0.21875 41.5938 0.21875 41.9062 0.21875C42.25 0.1875 42.5781 0.203125 42.8906 0.265625C43.2344 0.328125 43.6094 0.4375 44.0156 0.59375C44.4531 0.75 44.875 0.9375 45.2812 1.15625C45.7188 1.375 46.125 1.625 46.5 1.90625C46.875 2.15625 47.1875 2.39062 47.4375 2.60938C47.6875 3.17188 47.8125 3.71875 47.8125 4.25C47.8125 4.5 47.7969 4.75 47.7656 5C47.7344 5.21875 47.7188 5.45312 47.7188 5.70312C47.7188 6.07812 47.7969 6.5 47.9531 6.96875C47.8594 6.9375 47.7031 6.92188 47.4844 6.92188C47.2031 6.92188 46.9688 6.98438 46.7812 7.10938C46.5938 7.23438 46.4219 7.375 46.2656 7.53125C46.1094 7.6875 45.9531 7.82812 45.7969 7.95312C45.6719 8.07812 45.5469 8.14062 45.4219 8.14062C45.1719 8.14062 44.9531 8.09375 44.7656 8C44.6094 7.90625 44.4375 7.8125 44.25 7.71875C44.0938 7.59375 43.9219 7.5 43.7344 7.4375C43.5469 7.34375 43.3281 7.3125 43.0781 7.34375V7.15625C43.0781 6.8125 42.9688 6.59375 42.75 6.5C42.5312 6.375 42.3594 6.20312 42.2344 5.98438C41.7656 5.95312 41.2969 5.89062 40.8281 5.79688C40.3906 5.70312 39.9375 5.65625 39.4688 5.65625C38.8438 5.65625 38.3594 5.875 38.0156 6.3125C37.8594 6.25 37.7188 6.17188 37.5938 6.07812C37.5 5.98438 37.3594 5.95312 37.1719 5.98438H37.0312C35.3438 5.98438 33.6875 6.17188 32.0625 6.54688C30.4375 6.89062 28.8281 7.32812 27.2344 7.85938C25.6406 8.35938 24.0469 8.90625 22.4531 9.5C20.8594 10.0938 19.2656 10.6094 17.6719 11.0469C17.2969 11.5469 16.9062 11.9219 16.5 12.1719C16.0938 12.3906 15.6875 12.5781 15.2812 12.7344C14.9062 12.8906 14.5312 13.0469 14.1562 13.2031C13.7812 13.3594 13.4531 13.6094 13.1719 13.9531C12.9219 14.2969 12.7188 14.7812 12.5625 15.4062C12.4375 16 12.4062 16.8281 12.4688 17.8906C12.3125 18.0781 12.2188 18.2812 12.1875 18.5C12.1562 18.7188 12.125 18.9375 12.0938 19.1562C12.0625 19.3438 12.0156 19.5312 11.9531 19.7188C11.8906 19.9062 11.7812 20.0781 11.625 20.2344C11.6875 20.5469 11.7344 20.8594 11.7656 21.1719C11.7969 21.4844 11.8125 21.7969 11.8125 22.1094C11.8125 23.4219 11.5938 24.7031 11.1562 25.9531C11.3125 26.2031 11.3906 26.4844 11.3906 26.7969C11.3906 27.1406 11.3438 27.4531 11.25 27.7344C11.1562 28.0156 11.1094 28.3281 11.1094 28.6719C11.1094 29.0156 11.1719 29.2969 11.2969 29.5156C11.4844 29.5156 11.5938 29.5781 11.625 29.7031H11.9062C12.4688 29.7031 12.9531 29.5625 13.3594 29.2812C13.7656 29 14.2031 28.8594 14.6719 28.8594C14.7656 28.8594 14.875 28.8906 15 28.9531C15.125 29.0156 15.2344 29.0469 15.3281 29.0469C15.5469 29.0469 15.6406 28.9688 15.6094 28.8125C15.5781 28.6562 15.6562 28.5469 15.8438 28.4844L17.5312 28.2031C18.5938 28.0156 19.5938 27.7969 20.5312 27.5469C21.5 27.2656 22.4531 26.8594 23.3906 26.3281C23.6094 26.4219 23.8594 26.4688 24.1406 26.4688C24.3906 26.4688 24.6562 26.4375 24.9375 26.375C25.2188 26.2812 25.4844 26.2344 25.7344 26.2344C25.9531 26.2344 26.125 26.2656 26.25 26.3281C26.4375 26.2031 26.6719 26.1094 26.9531 26.0469C27.2344 25.9531 27.3906 25.7656 27.4219 25.4844H27.5156C27.6406 25.4844 27.7344 25.5156 27.7969 25.5781C27.8594 25.6406 27.9531 25.6719 28.0781 25.6719H28.2656C28.9219 25.3594 29.5156 25.125 30.0469 24.9688C30.9219 24.75 31.8594 24.5625 32.8594 24.4062C33.8594 24.2188 34.75 23.9062 35.5312 23.4688C36.4375 23.4688 37.3125 23.3281 38.1562 23.0469C39.0312 22.7344 39.9062 22.5781 40.7812 22.5781C41.1875 22.5781 41.5625 22.6406 41.9062 22.7656C42.2188 22.5469 42.5781 22.3906 42.9844 22.2969C43.4219 22.2031 43.7812 22.0312 44.0625 21.7812C44.25 21.8125 44.4375 21.8438 44.625 21.875C44.8438 21.875 45.0625 21.875 45.2812 21.875C46.2188 21.875 47.1094 21.75 47.9531 21.5C48.8281 21.2188 49.7188 21.0156 50.625 20.8906C50.8438 21.1406 50.9844 21.4062 51.0469 21.6875C51.1406 21.9375 51.1875 22.2031 51.1875 22.4844ZM103.078 41.8438C103.016 42.3125 102.844 42.6719 102.562 42.9219C102.312 43.1719 102.016 43.4062 101.672 43.625C101.516 43.5938 101.359 43.5781 101.203 43.5781C101.078 43.5469 100.938 43.5312 100.781 43.5312C99.8125 43.5 98.8906 43.625 98.0156 43.9062C97.1719 44.1875 96.2969 44.3906 95.3906 44.5156C95.0781 44.5781 94.7812 44.6094 94.5 44.6094C94.25 44.5781 93.9844 44.5938 93.7031 44.6562C92.7031 44.8125 91.6406 44.9375 90.5156 45.0312C89.3906 45.125 88.2656 45.25 87.1406 45.4062C86.0156 45.5312 84.9062 45.7031 83.8125 45.9219C82.75 46.1094 81.75 46.3906 80.8125 46.7656C80.7188 46.7031 80.625 46.6406 80.5312 46.5781C80.4375 46.4844 80.3281 46.4375 80.2031 46.4375C79.8906 46.4375 79.5938 46.4844 79.3125 46.5781C79.0312 46.6719 78.75 46.7031 78.4688 46.6719C78.1562 46.8594 77.8125 47 77.4375 47.0938C77.0938 47.1562 76.7344 47.2188 76.3594 47.2812C76.0156 47.3125 75.6719 47.375 75.3281 47.4688C74.9844 47.5625 74.6562 47.7344 74.3438 47.9844C74.0938 47.8594 73.7812 47.7969 73.4062 47.7969C73.0625 47.7656 72.8281 47.6406 72.7031 47.4219C71.9844 47.7656 71.2188 47.9844 70.4062 48.0781C69.625 48.1719 68.8281 48.2031 68.0156 48.1719C67.4844 48.1406 66.875 48.0625 66.1875 47.9375C65.5 47.8125 64.8125 47.6406 64.125 47.4219C63.4375 47.1719 62.7969 46.8906 62.2031 46.5781C61.6094 46.2344 61.1562 45.8281 60.8438 45.3594C60.625 45.0469 60.4688 44.7031 60.375 44.3281C60.2812 43.9531 60.0625 43.6719 59.7188 43.4844C59.8125 42.7656 59.9219 42.0625 60.0469 41.375C60.1719 40.6875 60.2969 39.9844 60.4219 39.2656C61.0469 38.7344 61.6406 38.1719 62.2031 37.5781C62.7656 36.9844 63.2969 36.3594 63.7969 35.7031C64.3906 35.4219 64.9375 35.0781 65.4375 34.6719C65.9688 34.2656 66.4844 33.8594 66.9844 33.4531C67.5156 33.0156 68.0312 32.5938 68.5312 32.1875C69.0625 31.7812 69.625 31.4219 70.2188 31.1094C70.3125 30.8906 70.4375 30.7188 70.5938 30.5938C70.7812 30.4375 70.9688 30.2969 71.1562 30.1719C71.3438 30.0156 71.5156 29.8594 71.6719 29.7031C71.8281 29.5156 71.9375 29.2969 72 29.0469C73.0938 28.3906 74.0469 27.5625 74.8594 26.5625C75.6719 25.5625 76.2031 24.4375 76.4531 23.1875C75.9219 22.75 75.3125 22.4688 74.625 22.3438C73.9688 22.1875 73.2812 22.0781 72.5625 22.0156C71.9375 21.9844 71.2812 21.9844 70.5938 22.0156C69.9375 22.0469 69.2656 22.0312 68.5781 21.9688C67.8906 22.1875 67.1719 22.3281 66.4219 22.3906C65.7031 22.4531 64.9844 22.5156 64.2656 22.5781C63.5469 22.6094 62.8281 22.7031 62.1094 22.8594C61.4219 22.9844 60.75 23.2344 60.0938 23.6094C59.9688 23.6094 59.8438 23.5938 59.7188 23.5625C59.625 23.5312 59.5156 23.5156 59.3906 23.5156C58.3906 23.4844 57.4531 23.6875 56.5781 24.125C55.7031 24.5312 54.8438 24.9375 54 25.3438C53.9375 25.4688 53.9062 25.5625 53.9062 25.625C53.9062 25.8125 53.9375 26 54 26.1875C54.0938 26.3438 54.1406 26.5156 54.1406 26.7031C54.1094 26.7344 54.0938 26.7656 54.0938 26.7969C54.0938 26.8281 54.0781 26.8594 54.0469 26.8906C54.0156 27.0469 53.9688 27.1875 53.9062 27.3125C53.875 27.4375 53.8281 27.5781 53.7656 27.7344C53.4219 28.7344 53.2344 29.7188 53.2031 30.6875C53.1719 31.5 53.1719 32.2969 53.2031 33.0781C53.2344 33.8594 53.2344 34.6562 53.2031 35.4688C53.1406 36.4688 52.9844 37.4062 52.7344 38.2812C52.8906 39.0312 53.0312 39.8281 53.1562 40.6719C53.2812 41.4844 53.4375 42.2969 53.625 43.1094C53.8125 43.9219 54.0312 44.7188 54.2812 45.5C54.5625 46.25 54.9219 46.9688 55.3594 47.6562C55.3281 47.7188 55.3438 47.7656 55.4062 47.7969C55.4688 47.8281 55.5312 47.8438 55.5938 47.8438H55.9688C56.125 47.8438 56.1875 47.9062 56.1562 48.0312C56.2188 48.125 56.2656 48.2188 56.2969 48.3125C56.3281 48.375 56.3906 48.4375 56.4844 48.5C56.5469 48.5938 56.5469 48.7188 56.4844 48.875C56.4531 49.5 56.2969 50.0781 56.0156 50.6094C55.7344 51.1406 55.5625 51.7188 55.5 52.3438C55.125 52.4375 54.7812 52.4844 54.4688 52.4844C53.9375 52.4531 53.4688 52.2969 53.0625 52.0156C52.6562 51.7656 52.2812 51.4531 51.9375 51.0781C51.5938 50.7031 51.2656 50.3281 50.9531 49.9531C50.6406 49.5469 50.2969 49.2031 49.9219 48.9219C49.7031 48.0469 49.4844 47.0781 49.2656 46.0156C49.0781 44.9531 48.75 44.0469 48.2812 43.2969C48.4062 43.0156 48.4688 42.6719 48.4688 42.2656C48.5 41.6406 48.4375 41.0312 48.2812 40.4375C48.1562 39.8125 48.125 39.1875 48.1875 38.5625C48.1875 38.2188 48.2188 37.875 48.2812 37.5312C48.375 37.1875 48.4375 36.8438 48.4688 36.5C48.5 35.9688 48.4375 35.4531 48.2812 34.9531C48.1562 34.4531 48.1094 33.9375 48.1406 33.4062C48.1719 33.1562 48.2188 32.9219 48.2812 32.7031C48.375 32.4531 48.5 32.2344 48.6562 32.0469C48.5 31.6719 48.4531 31.3125 48.5156 30.9688C48.5469 30.4375 48.6094 29.9375 48.7031 29.4688C48.7969 29 48.8594 28.5312 48.8906 28.0625C48.8906 27.8125 48.875 27.5781 48.8438 27.3594C48.8125 27.1094 48.7656 26.875 48.7031 26.6562L48.2812 26.5156C48.0938 26.5156 47.9062 26.5625 47.7188 26.6562C47.5625 26.75 47.4219 26.8594 47.2969 26.9844C47.1719 27.1094 47.0625 27.2188 46.9688 27.3125C46.875 27.375 46.7812 27.4062 46.6875 27.4062C46.625 27.4062 46.5469 27.4062 46.4531 27.4062C46.3906 27.375 46.3281 27.3594 46.2656 27.3594C46.2031 27.3594 46.0781 27.4219 45.8906 27.5469C45.7344 27.6719 45.5312 27.8125 45.2812 27.9688C45.0625 28.0938 44.8438 28.2344 44.625 28.3906C44.4062 28.5156 44.2344 28.5938 44.1094 28.625C43.7656 28.5625 43.4844 28.4531 43.2656 28.2969C43.0781 28.1094 42.8906 27.9375 42.7031 27.7812C42.5469 27.5938 42.375 27.4375 42.1875 27.3125C42 27.1562 41.7656 27.0938 41.4844 27.125C41.3906 26.9375 41.3438 26.7344 41.3438 26.5156C41.3125 26.2969 41.3125 26.0781 41.3438 25.8594V25.1094C41.5625 24.7031 41.8594 24.375 42.2344 24.125C42.5781 23.8438 42.9531 23.6094 43.3594 23.4219L44.5781 22.8594C44.9844 22.6719 45.3594 22.4375 45.7031 22.1562H46.125C46.6875 22.1875 47.1719 22.0781 47.5781 21.8281C48.0156 21.5781 48.4219 21.2969 48.7969 20.9844C49.1719 20.6406 49.5469 20.2969 49.9219 19.9531C50.3281 19.6094 50.7656 19.3438 51.2344 19.1562C51.5781 19.3125 51.9375 19.4531 52.3125 19.5781C52.6875 19.6719 53.0781 19.7344 53.4844 19.7656C53.8906 19.7656 54.3125 19.7031 54.75 19.5781C55.1875 19.4531 55.5312 19.2188 55.7812 18.875C55.9375 18.9375 56.0625 18.9844 56.1562 19.0156C56.2812 19.0156 56.4219 19.0156 56.5781 19.0156C57.0469 19.0469 57.5156 18.9844 57.9844 18.8281C58.4531 18.6406 58.9062 18.4219 59.3438 18.1719C59.9688 18.2031 60.5781 18.1719 61.1719 18.0781C61.7969 17.9531 62.4062 17.8281 63 17.7031C63.625 17.5781 64.2344 17.4688 64.8281 17.375C65.4531 17.25 66.0781 17.2031 66.7031 17.2344C67.7344 17.2656 68.75 17.1719 69.75 16.9531C70.75 16.7344 71.7656 16.6562 72.7969 16.7188C73.5156 16.75 74.2188 16.8125 74.9062 16.9062C75.625 16.9688 76.3438 16.9844 77.0625 16.9531C77.4688 17.1406 77.8281 17.3125 78.1406 17.4688C78.4844 17.5938 78.9062 17.625 79.4062 17.5625C80.4062 18.4062 81.3125 19.3906 82.125 20.5156V21.3125C82.0938 22.0312 81.9688 22.7344 81.75 23.4219C81.5312 24.1094 81.2656 24.7969 80.9531 25.4844C80.6719 26.1406 80.3594 26.7969 80.0156 27.4531C79.6719 28.0781 79.3438 28.7031 79.0312 29.3281C77 31.1719 74.9688 33 72.9375 34.8125C70.9062 36.625 68.8125 38.375 66.6562 40.0625C66.5938 40.375 66.5 40.6562 66.375 40.9062C66.2812 41.1562 66.2188 41.4219 66.1875 41.7031C66.1875 41.8594 66.2031 41.9844 66.2344 42.0781C66.4531 42.1406 66.6406 42.2656 66.7969 42.4531C66.9844 42.6094 67.0469 42.8281 66.9844 43.1094H67.4062C67.5625 43.1094 67.6406 43.1719 67.6406 43.2969L68.3906 43.3438C69.5781 43.4062 70.7656 43.375 71.9531 43.25C73.1406 43.125 74.3281 42.9844 75.5156 42.8281C76.7344 42.6719 77.9375 42.5312 79.125 42.4062C80.3125 42.25 81.5 42.1562 82.6875 42.125C82.9688 42.0312 83.2656 41.9531 83.5781 41.8906C83.8906 41.8281 84.1719 41.7031 84.4219 41.5156H84.5625C84.7812 41.5156 84.9375 41.5781 85.0312 41.7031C85.1562 41.8281 85.3281 41.9062 85.5469 41.9375C85.7031 41.9375 85.8594 41.9062 86.0156 41.8438C86.2031 41.7812 86.3906 41.7344 86.5781 41.7031C87.0156 41.5781 87.4688 41.5 87.9375 41.4688C88.4375 41.4375 88.9219 41.3906 89.3906 41.3281C91.2031 41.1719 93 41.0781 94.7812 41.0469C96.5625 40.9844 98.3438 40.75 100.125 40.3438C100.281 40.5625 100.5 40.7188 100.781 40.8125C101.062 40.875 101.359 40.9531 101.672 41.0469C101.984 41.1094 102.266 41.1875 102.516 41.2812C102.797 41.375 102.984 41.5625 103.078 41.8438ZM124.641 46.5781C124.547 47.0156 124.344 47.375 124.031 47.6562C123.75 47.9062 123.406 48.1094 123 48.2656C122.594 48.4219 122.172 48.5312 121.734 48.5938C121.328 48.625 120.953 48.6406 120.609 48.6406C120.453 48.6406 120.297 48.6406 120.141 48.6406C120.016 48.6094 119.875 48.5938 119.719 48.5938C119.562 48.5938 119.484 48.6719 119.484 48.8281C119.484 48.9844 119.406 49.0938 119.25 49.1562C119.094 49.0938 118.938 49.0469 118.781 49.0156C118.625 48.9844 118.469 48.9688 118.312 48.9688C118.094 48.9688 117.875 48.9844 117.656 49.0156C117.469 49.0469 117.281 49.0625 117.094 49.0625C116.844 49.0625 116.656 49.0312 116.531 48.9688C116.438 48.9062 116.344 48.8438 116.25 48.7812C116.188 48.6875 116.109 48.5938 116.016 48.5C115.953 48.4062 115.844 48.3281 115.688 48.2656C115.469 48.1719 115.281 48.1562 115.125 48.2188C115 48.2812 114.797 48.1875 114.516 47.9375C114.141 47.625 113.812 47.25 113.531 46.8125C113.281 46.3438 113.031 45.8594 112.781 45.3594C112.531 44.8594 112.266 44.3594 111.984 43.8594C111.703 43.3594 111.375 42.9219 111 42.5469H110.625C110.062 42.5469 109.672 42.7812 109.453 43.25C109.297 43.1562 109.141 43.0469 108.984 42.9219C108.828 42.7656 108.656 42.6406 108.469 42.5469C107.75 42.7656 107 42.9531 106.219 43.1094C105.438 43.2656 104.656 43.3438 103.875 43.3438H103.219C103.031 43.3438 102.828 43.3125 102.609 43.25C102.297 43.375 102.016 43.5312 101.766 43.7188C101.516 43.875 101.234 43.9531 100.922 43.9531C100.734 43.9531 100.516 43.8906 100.266 43.7656C100.078 43.7656 99.9844 43.8438 99.9844 44C100.016 44.1562 99.9219 44.2344 99.7031 44.2344H99.2812C98.8438 44.2344 98.4062 44.25 97.9688 44.2812C97.5625 44.3125 97.1406 44.3281 96.7031 44.3281C96.1094 44.3281 95.5 44.25 94.875 44.0938C94.7188 44.1875 94.5469 44.2344 94.3594 44.2344C94.2344 44.2969 94.1406 44.4062 94.0781 44.5625C94.0156 44.6875 93.9531 44.8125 93.8906 44.9375C93.8281 45.0312 93.7344 45.125 93.6094 45.2188C93.5156 45.2812 93.375 45.2969 93.1875 45.2656C93.125 45.6406 92.9688 45.9375 92.7188 46.1562C92.4688 46.375 92.3438 46.7031 92.3438 47.1406C92 47.3281 91.7188 47.5625 91.5 47.8438C91.2812 48.125 91.0625 48.4219 90.8438 48.7344C90.625 49.0469 90.3906 49.3438 90.1406 49.625C89.9219 49.9062 89.6406 50.125 89.2969 50.2812C89.1406 50.4688 89.0938 50.7656 89.1562 51.1719C88.8125 51.4531 88.3906 51.7031 87.8906 51.9219C87.3906 52.1406 86.9219 52.25 86.4844 52.25C85.5781 52.25 84.9531 51.7656 84.6094 50.7969C84.6094 50.4844 84.6406 50.1562 84.7031 49.8125C84.7344 49.4375 84.7969 49.0938 84.8906 48.7812C84.9844 48.4375 85.125 48.1406 85.3125 47.8906C85.5 47.6094 85.7656 47.4062 86.1094 47.2812C86.1094 47 86.0156 46.8125 85.8281 46.7188C85.6406 46.5938 85.5625 46.3906 85.5938 46.1094C86.4375 45.7031 87.1719 45.1719 87.7969 44.5156C88.4219 43.8594 88.9844 43.1719 89.4844 42.4531C90.0156 41.7031 90.5469 40.9531 91.0781 40.2031C91.6094 39.4531 92.2031 38.7812 92.8594 38.1875V37.2031C93.7969 36.2031 94.4062 35.0781 94.6875 33.8281C95.0312 33.7656 95.25 33.6094 95.3438 33.3594C95.4688 33.1094 95.5312 32.8125 95.5312 32.4688C95.6875 32.4688 95.7812 32.4062 95.8125 32.2812C95.875 32.125 96.0156 32.0781 96.2344 32.1406C96.5156 31.3906 96.8281 30.7031 97.1719 30.0781C97.5156 29.4531 97.8594 28.8281 98.2031 28.2031C98.5469 27.5469 98.8438 26.875 99.0938 26.1875C99.375 25.5 99.5781 24.7344 99.7031 23.8906C100.141 23.8594 100.375 23.6562 100.406 23.2812C100.469 22.875 100.531 22.5156 100.594 22.2031C101.062 21.7656 101.406 21.25 101.625 20.6562C101.875 20.0625 102.094 19.4531 102.281 18.8281C102.469 18.1719 102.672 17.5312 102.891 16.9062C103.141 16.25 103.484 15.6719 103.922 15.1719V15.0312C103.922 14.875 103.859 14.7812 103.734 14.75C103.609 14.6875 103.547 14.5781 103.547 14.4219C103.578 14.3906 103.594 14.3594 103.594 14.3281C103.969 14.1719 104.25 13.9219 104.438 13.5781C104.625 13.2031 104.906 12.9375 105.281 12.7812C105.938 13.3125 106.516 13.6406 107.016 13.7656C107.516 13.8594 108.172 13.9375 108.984 14C109.391 14.4375 109.609 14.9688 109.641 15.5938C109.703 16.1875 109.812 16.7812 109.969 17.375C110.219 18.375 110.484 19.3594 110.766 20.3281C111.078 21.2656 111.312 22.2344 111.469 23.2344C111.562 23.8281 111.734 24.3906 111.984 24.9219C112.234 25.4531 112.406 26 112.5 26.5625C112.562 27 112.562 27.5 112.5 28.0625C112.438 28.5938 112.5 29.0625 112.688 29.4688L113.016 30.2188C113.172 30.5625 113.297 30.9219 113.391 31.2969C113.516 31.6719 113.625 32.0469 113.719 32.4219C113.969 33.3594 114.188 34.375 114.375 35.4688C114.594 36.5312 114.922 37.5 115.359 38.375C115.516 38.6875 115.75 38.9062 116.062 39.0312C116.406 39.1562 116.781 39.25 117.188 39.3125C117.594 39.3438 117.984 39.3594 118.359 39.3594C118.766 39.3281 119.109 39.3125 119.391 39.3125H119.859C120.047 39.3125 120.234 39.3438 120.422 39.4062C120.547 39.6562 120.609 39.875 120.609 40.0625C120.609 40.4375 120.484 40.7344 120.234 40.9531C119.984 41.1719 119.859 41.4219 119.859 41.7031C119.859 41.8594 119.922 42.0312 120.047 42.2188C119.922 42.1875 119.734 42.1719 119.484 42.1719C118.766 42.1719 118.062 42.2969 117.375 42.5469C117.625 43.0781 117.953 43.5312 118.359 43.9062C118.797 44.25 119.25 44.5781 119.719 44.8906C120.031 44.6406 120.359 44.5156 120.703 44.5156C121.078 44.5156 121.422 44.6094 121.734 44.7969C122.078 44.9531 122.438 45.0312 122.812 45.0312C123.094 45.0312 123.297 44.9844 123.422 44.8906C123.672 45.1719 123.875 45.4688 124.031 45.7812C124.188 46.0625 124.391 46.3281 124.641 46.5781ZM109.969 39.0781C109.906 38.5469 109.797 38.1719 109.641 37.9531C109.516 37.7031 109.406 37.4062 109.312 37.0625C109.188 36.625 109.094 36.1562 109.031 35.6562C109 35.1562 108.938 34.6719 108.844 34.2031C108.625 33.1406 108.375 32.0781 108.094 31.0156C107.844 29.9531 107.516 28.9219 107.109 27.9219C107.234 27.7344 107.297 27.5625 107.297 27.4062V27.2656C107.016 26.9531 106.812 26.5781 106.688 26.1406C106.562 25.6719 106.438 25.2188 106.312 24.7812C106.219 24.3125 106.078 23.8906 105.891 23.5156C105.734 23.1094 105.469 22.7812 105.094 22.5312C105 22.7188 104.953 22.9375 104.953 23.1875C104.953 23.4062 104.969 23.6094 105 23.7969C105.062 23.9844 105.094 24.1875 105.094 24.4062C104.781 24.5625 104.547 24.8125 104.391 25.1562C104.266 25.4688 104.047 25.7188 103.734 25.9062C103.484 26.9062 103.125 27.8594 102.656 28.7656C102.188 29.6406 101.688 30.5156 101.156 31.3906C100.656 32.2656 100.172 33.1562 99.7031 34.0625C99.2344 34.9375 98.8594 35.8594 98.5781 36.8281C98.1719 37.1094 97.8906 37.4688 97.7344 37.9062C97.6094 38.3438 97.5469 38.7812 97.5469 39.2188C97.8281 39.375 98.1406 39.4688 98.4844 39.5C98.8594 39.5 99.2188 39.5 99.5625 39.5C99.9062 39.5 100.234 39.5312 100.547 39.5938C100.859 39.6562 101.141 39.8125 101.391 40.0625C101.797 39.9375 102.234 39.8594 102.703 39.8281C103.203 39.7656 103.609 39.625 103.922 39.4062C104.547 39.625 105.219 39.7344 105.938 39.7344C106.312 39.7344 106.672 39.7031 107.016 39.6406C107.391 39.5781 107.75 39.5 108.094 39.4062C108.375 39.4688 108.594 39.5781 108.75 39.7344C108.906 39.8594 109.141 39.9062 109.453 39.875C109.609 39.75 109.703 39.625 109.734 39.5C109.766 39.3438 109.844 39.2031 109.969 39.0781ZM155.109 19.2031C155.047 19.5781 154.953 19.9062 154.828 20.1875C154.734 20.4375 154.719 20.7812 154.781 21.2188C154.469 21.25 154.219 21.3594 154.031 21.5469C153.875 21.7031 153.734 21.8906 153.609 22.1094C153.516 22.3281 153.406 22.5625 153.281 22.8125C153.188 23.0312 153.062 23.2344 152.906 23.4219C153.156 24.5469 153.297 25.6875 153.328 26.8438C153.359 28 153.438 29.1406 153.562 30.2656C153.719 31.7031 153.953 33.125 154.266 34.5312C154.609 35.9062 154.781 37.3125 154.781 38.75C154.781 39.1875 154.766 39.5938 154.734 39.9688C154.734 40.3438 154.734 40.7344 154.734 41.1406C154.734 41.3906 154.734 41.6562 154.734 41.9375C154.766 42.1875 154.781 42.4375 154.781 42.6875C154.781 43.5938 154.656 44.5 154.406 45.4062C154.188 46.3125 154.016 47.2188 153.891 48.125C153.516 48.4688 153.188 48.8438 152.906 49.25C152.656 49.6562 152.391 50.0312 152.109 50.375C151.828 50.7188 151.5 51.0156 151.125 51.2656C150.75 51.5469 150.281 51.7344 149.719 51.8281C149.625 52.1406 149.438 52.375 149.156 52.5312C148.906 52.6875 148.688 52.9062 148.5 53.1875H148.406C147.625 53.1875 146.953 53.0781 146.391 52.8594C145.828 52.6406 145.297 52.3906 144.797 52.1094C144.328 51.8281 143.844 51.5312 143.344 51.2188C142.844 50.9062 142.266 50.6562 141.609 50.4688C140.734 49.75 139.938 48.9688 139.219 48.125C138.5 47.25 137.688 46.4688 136.781 45.7812C136.562 45.1562 136.266 44.6406 135.891 44.2344C135.547 43.8281 135.203 43.3594 134.859 42.8281C134.703 42.6094 134.578 42.4062 134.484 42.2188C134.422 42.0312 134.328 41.8125 134.203 41.5625C134.109 41.3125 133.953 41.1406 133.734 41.0469C133.547 40.9531 133.375 40.8438 133.219 40.7188C132.969 39.75 132.609 38.8594 132.141 38.0469C131.672 37.2344 131.125 36.4531 130.5 35.7031C130.312 36.0469 130.156 36.4219 130.031 36.8281C129.938 37.2031 129.844 37.5938 129.75 38C129.656 38.375 129.531 38.7656 129.375 39.1719C129.25 39.5469 129.078 39.8906 128.859 40.2031V40.3438C128.859 40.5 128.922 40.5938 129.047 40.625C129.172 40.6562 129.234 40.75 129.234 40.9062C129.234 40.9375 129.219 40.9688 129.188 41C129.188 41.0312 129.188 41.0625 129.188 41.0938C129.031 41.2188 128.906 41.375 128.812 41.5625C128.75 41.75 128.594 41.8594 128.344 41.8906C128.375 42.0469 128.391 42.2031 128.391 42.3594V42.7812C128.391 43.6875 128.281 44.5938 128.062 45.5C127.875 46.4062 127.781 47.3281 127.781 48.2656V48.875C127.781 49.0938 127.797 49.2969 127.828 49.4844C127.891 49.6719 127.984 49.8594 128.109 50.0469C128.234 50.2344 128.297 50.4062 128.297 50.5625C128.297 50.7812 128.203 50.9844 128.016 51.1719C128.234 51.3281 128.484 51.5 128.766 51.6875C129.047 51.875 129.297 52.0781 129.516 52.2969C129.766 52.5469 129.969 52.7969 130.125 53.0469C130.281 53.3281 130.359 53.625 130.359 53.9375C130.359 54.4688 130.188 54.8438 129.844 55.0625C129.5 55.2812 129.078 55.4531 128.578 55.5781C128.109 55.7031 127.609 55.8125 127.078 55.9062C126.578 56.0312 126.156 56.2344 125.812 56.5156H125.672C125.297 56.5156 125.016 56.4062 124.828 56.1875C124.641 55.9688 124.359 55.8594 123.984 55.8594C123.391 54.8906 122.984 53.7969 122.766 52.5781C122.547 51.3906 122.438 50.25 122.438 49.1562C122.438 47.8125 122.562 46.4688 122.812 45.125C123.031 43.7812 123.312 42.4531 123.656 41.1406C123.969 39.8281 124.312 38.5312 124.688 37.25C125.094 35.9375 125.469 34.625 125.812 33.3125L125.859 33.1719C125.859 33.0156 125.812 32.9062 125.719 32.8438C125.656 32.7812 125.625 32.6875 125.625 32.5625C125.625 32.5 125.641 32.4688 125.672 32.4688C125.766 32.1562 125.859 31.8594 125.953 31.5781C126.078 31.2969 126.172 30.9844 126.234 30.6406C126.422 29.7656 126.547 28.875 126.609 27.9688C126.703 27.0312 126.75 26.1094 126.75 25.2031C126.781 24.2969 126.812 23.3906 126.844 22.4844C126.906 21.5469 127.016 20.625 127.172 19.7188C127.422 19.4688 127.656 19.2031 127.875 18.9219C128.094 18.6406 128.375 18.3906 128.719 18.1719C129.344 18.2031 129.969 18.2969 130.594 18.4531C131.219 18.6094 131.812 18.8594 132.375 19.2031C132.75 20.5469 133 21.8906 133.125 23.2344C133.281 24.5781 133.531 25.9219 133.875 27.2656V27.4062C133.875 27.5625 133.953 27.6406 134.109 27.6406C134.297 27.6094 134.438 27.6562 134.531 27.7812C134.469 27.875 134.422 27.9844 134.391 28.1094C134.391 28.2344 134.391 28.3594 134.391 28.4844V29.2812C134.453 29.5312 134.531 29.7969 134.625 30.0781C134.719 30.3594 134.922 30.5312 135.234 30.5938C135.391 31.5938 135.625 32.5156 135.938 33.3594C136.25 34.2031 136.609 35.0156 137.016 35.7969C137.422 36.5781 137.859 37.3594 138.328 38.1406C138.797 38.8906 139.281 39.6875 139.781 40.5312C140.562 41.125 141.234 41.8125 141.797 42.5938C142.359 43.3438 142.922 44.0781 143.484 44.7969C144.078 45.4844 144.734 46.0938 145.453 46.625C146.203 47.1562 147.172 47.4844 148.359 47.6094C148.516 47.4844 148.625 47.3125 148.688 47.0938L148.922 46.4375C149.016 46.2188 149.109 46.0312 149.203 45.875C149.328 45.6875 149.5 45.5469 149.719 45.4531C149.781 44.5781 149.844 43.6875 149.906 42.7812C150 41.875 150.203 41.0156 150.516 40.2031C150.359 39.9219 150.281 39.5781 150.281 39.1719C150.281 38.8594 150.297 38.5625 150.328 38.2812C150.391 38 150.422 37.7188 150.422 37.4375C150.422 36.8438 150.297 36.3594 150.047 35.9844C150.047 35.7656 150.062 35.5469 150.094 35.3281C150.125 35.0781 150.219 34.8438 150.375 34.625C150.125 34 149.922 33.3438 149.766 32.6562C149.641 31.9688 149.578 31.2656 149.578 30.5469C149.578 30.1406 149.625 29.7188 149.719 29.2812C149.531 28.8125 149.406 28.2656 149.344 27.6406L149.156 25.7188C149.094 25.0625 149 24.4531 148.875 23.8906C148.75 23.3281 148.516 22.875 148.172 22.5312C148.359 22.25 148.453 21.9219 148.453 21.5469C148.453 20.9219 148.359 20.3281 148.172 19.7656C147.984 19.2031 147.891 18.6094 147.891 17.9844C147.891 17.5469 147.984 17.1094 148.172 16.6719C148.859 16.7031 149.531 16.7812 150.188 16.9062C150.875 17 151.547 17.0469 152.203 17.0469C152.391 17.2969 152.609 17.5 152.859 17.6562C153.109 17.8125 153.375 17.9688 153.656 18.125C153.938 18.25 154.203 18.3906 154.453 18.5469C154.734 18.7031 154.953 18.9219 155.109 19.2031ZM194.953 41.5625C194.953 41.875 194.859 42.1406 194.672 42.3594C194.516 42.5469 194.312 42.7188 194.062 42.875C193.844 43.0312 193.609 43.1719 193.359 43.2969C193.141 43.4219 192.938 43.5781 192.75 43.7656C192.625 43.8906 192.531 44.0469 192.469 44.2344C192.438 44.3906 192.359 44.5 192.234 44.5625C192.047 44.7188 191.844 44.8125 191.625 44.8438C191.406 44.875 191.172 44.9219 190.922 44.9844C190.703 45.0156 190.484 45.0781 190.266 45.1719C190.047 45.2344 189.859 45.375 189.703 45.5938C188.234 45.75 186.781 45.9531 185.344 46.2031C183.938 46.4531 182.484 46.5781 180.984 46.5781C180.703 46.5781 180.391 46.6094 180.047 46.6719C179.734 46.7031 179.438 46.7344 179.156 46.7656C178.5 46.8281 177.844 46.875 177.188 46.9062C176.562 46.9375 175.922 46.9531 175.266 46.9531C174.359 46.9531 173.453 46.9219 172.547 46.8594C171.641 46.7656 170.75 46.625 169.875 46.4375C169.656 46.2812 169.406 46.1562 169.125 46.0625C168.844 45.9688 168.547 45.875 168.234 45.7812C167.953 45.6875 167.688 45.5781 167.438 45.4531C167.188 45.3281 167 45.1406 166.875 44.8906C166.406 44.8594 165.984 44.7656 165.609 44.6094C165.266 44.4531 164.938 44.2812 164.625 44.0938C164.344 43.875 164.047 43.6562 163.734 43.4375C163.422 43.2188 163.062 43.0312 162.656 42.875C162.344 42.4375 162.016 42.0156 161.672 41.6094C161.359 41.1719 160.969 40.8125 160.5 40.5312C160.406 39.9375 160.25 39.3438 160.031 38.75C159.844 38.1562 159.641 37.5781 159.422 37.0156C159.234 36.4219 159.078 35.8281 158.953 35.2344C158.797 34.6406 158.719 34.0312 158.719 33.4062C158.719 32.9688 158.781 32.4375 158.906 31.8125C159.031 31.1875 159.188 30.5625 159.375 29.9375C159.594 29.2812 159.844 28.6719 160.125 28.1094C160.406 27.5469 160.688 27.0938 160.969 26.75C161.062 26.6562 161.172 26.5781 161.297 26.5156C161.422 26.4531 161.531 26.3594 161.625 26.2344C161.906 25.9219 162.203 25.6719 162.516 25.4844C162.828 25.2656 163.156 25.0156 163.5 24.7344C163.625 24.6094 163.719 24.4688 163.781 24.3125C163.875 24.1562 164 24.0156 164.156 23.8906C164.25 23.8281 164.375 23.8125 164.531 23.8438C164.719 23.875 164.875 23.8438 165 23.75C165.125 23.6562 165.188 23.5469 165.188 23.4219C165.188 23.2969 165.234 23.1875 165.328 23.0938C165.359 23.0625 165.453 23.0625 165.609 23.0938C165.766 23.0938 165.859 23.0938 165.891 23.0938C166.109 23.0938 166.359 22.9531 166.641 22.6719C166.922 22.3594 167.156 22.1562 167.344 22.0625C167.562 21.9375 167.781 21.8594 168 21.8281C168.219 21.7656 168.453 21.6719 168.703 21.5469C169.047 21.3594 169.375 21.2188 169.688 21.125C170.031 21 170.375 20.8594 170.719 20.7031C170.906 20.6406 171.078 20.5312 171.234 20.375C171.391 20.2188 171.547 20.1094 171.703 20.0469C171.984 19.9531 172.281 19.8906 172.594 19.8594C172.938 19.7969 173.25 19.75 173.531 19.7188C173.844 19.6562 174.141 19.5938 174.422 19.5312C174.734 19.4375 175.016 19.2812 175.266 19.0625H175.641C176.203 19.0625 176.75 18.9844 177.281 18.8281C177.812 18.6719 178.359 18.5938 178.922 18.5938C179.078 18.5938 179.312 18.625 179.625 18.6875C179.875 18.5312 180.156 18.4531 180.469 18.4531C181 18.4531 181.531 18.5938 182.062 18.875C182.594 19.125 183.141 19.25 183.703 19.25H183.984C184.109 19.25 184.234 19.2344 184.359 19.2031C184.703 19.5469 185.109 19.7344 185.578 19.7656C186.078 19.7969 186.5 19.9375 186.844 20.1875C187.062 20.375 187.234 20.5938 187.359 20.8438C187.516 21.0938 187.641 21.3594 187.734 21.6406L188.016 22.4844C188.109 22.7656 188.234 23.0156 188.391 23.2344C188.234 24.3594 187.766 25.2656 186.984 25.9531C186.234 26.6094 185.281 26.9375 184.125 26.9375C183.688 26.9375 183.312 26.8906 183 26.7969C182.719 26.6719 182.453 26.5469 182.203 26.4219C181.984 26.2969 181.75 26.1719 181.5 26.0469C181.25 25.9219 180.969 25.8281 180.656 25.7656C181 25.1406 181.219 24.4688 181.312 23.75C180.969 23.5938 180.625 23.4844 180.281 23.4219C179.938 23.3594 179.609 23.25 179.297 23.0938C178.453 23.3125 177.625 23.4688 176.812 23.5625C176.031 23.625 175.297 23.9531 174.609 24.5469C174.453 24.5156 174.281 24.4844 174.094 24.4531C173.938 24.4219 173.781 24.4062 173.625 24.4062C173.438 24.4062 173.062 24.5469 172.5 24.8281C171.938 25.0781 171.328 25.375 170.672 25.7188C170.047 26.0625 169.438 26.4062 168.844 26.75C168.281 27.0938 167.891 27.3281 167.672 27.4531C167.422 27.6094 167.203 27.7969 167.016 28.0156C166.828 28.2344 166.641 28.4688 166.453 28.7188C166.266 28.9375 166.078 29.1562 165.891 29.375C165.703 29.5625 165.469 29.7031 165.188 29.7969C165.125 30.1406 165.016 30.4375 164.859 30.6875C164.703 30.9375 164.531 31.2031 164.344 31.4844C164.312 32.0469 164.25 32.6094 164.156 33.1719C164.094 33.7344 164.062 34.2969 164.062 34.8594V35.4688C164.062 35.6562 164.094 35.8281 164.156 35.9844C164.469 36.3906 164.719 36.8438 164.906 37.3438C165.125 37.8438 165.484 38.1875 165.984 38.375C166.016 38.5 166 38.5781 165.938 38.6094C165.906 38.6406 165.875 38.7188 165.844 38.8438C166.031 39.1875 166.266 39.4688 166.547 39.6875C166.859 39.875 167.172 40.0781 167.484 40.2969C167.797 40.4844 168.094 40.6875 168.375 40.9062C168.656 41.125 168.875 41.4062 169.031 41.75C169.5 41.75 169.938 41.8281 170.344 41.9844C170.781 42.1406 171.188 42.3125 171.562 42.5C171.969 42.6875 172.344 42.8594 172.688 43.0156C173.062 43.1719 173.438 43.25 173.812 43.25C174.156 43.25 174.469 43.2031 174.75 43.1094C175.562 43.3594 176.375 43.5469 177.188 43.6719C178.031 43.7656 178.875 43.8125 179.719 43.8125C180.75 43.8125 181.781 43.75 182.812 43.625C183.844 43.5 184.875 43.3906 185.906 43.2969C186.281 43.2344 186.641 43.2031 186.984 43.2031C187.328 43.2031 187.672 43.1719 188.016 43.1094C188.453 43.0469 188.859 42.8438 189.234 42.5C189.641 42.1562 190.031 41.9062 190.406 41.75C190.75 41.9688 191.156 42.0781 191.625 42.0781C192.156 42.0781 192.672 42 193.172 41.8438C193.672 41.6562 194.188 41.5625 194.719 41.5625H194.953ZM224.25 22.8594C224.062 23.1406 223.953 23.4531 223.922 23.7969C223.891 24.1406 223.875 24.4531 223.875 24.7344C223.875 25.1094 223.875 25.4844 223.875 25.8594C223.906 26.2031 223.922 26.5469 223.922 26.8906V27.5938C223.859 27.8125 223.766 28.0312 223.641 28.25C223.516 28.4688 223.422 28.6875 223.359 28.9062C222.922 30.0625 222.703 31.2188 222.703 32.375V32.4688C222.547 32.8438 222.391 33.1875 222.234 33.5C222.109 33.8125 221.984 34.125 221.859 34.4375C221.734 34.7188 221.641 35.0312 221.578 35.375C221.516 35.6875 221.5 36.0625 221.531 36.5C221.094 37.5938 220.516 38.5938 219.797 39.5C219.078 40.375 218.375 41.2812 217.688 42.2188C217.031 42.4688 216.422 42.7969 215.859 43.2031C215.328 43.6094 214.812 44.0625 214.312 44.5625C213.344 44.875 212.391 45.2344 211.453 45.6406C210.516 46.0469 209.672 46.5938 208.922 47.2812C208.328 47.3438 207.734 47.4375 207.141 47.5625C206.547 47.6875 205.969 47.875 205.406 48.125H204.844C204.562 48.125 204.359 48.0625 204.234 47.9375C203.828 48.1562 203.406 48.3125 202.969 48.4062C202.531 48.4688 202.094 48.5 201.656 48.5C201.094 48.5 200.531 48.4688 199.969 48.4062C199.438 48.3125 198.891 48.2188 198.328 48.125C198.016 47.6875 197.578 47.3594 197.016 47.1406C196.453 46.8906 195.953 46.6562 195.516 46.4375C194.609 45.1875 193.953 43.9844 193.547 42.8281C193.141 41.6406 192.719 40.3125 192.281 38.8438C192.344 38.4062 192.453 37.9844 192.609 37.5781C192.766 37.1406 192.828 36.6719 192.797 36.1719C193.359 34.5469 194.094 33.0781 195 31.7656C195.938 30.4219 197 29.1406 198.188 27.9219C198.188 27.7344 198.219 27.5781 198.281 27.4531C198.375 27.3281 198.391 27.1406 198.328 26.8906C198.359 26.9219 198.422 26.9375 198.516 26.9375C198.766 26.9375 198.922 26.875 198.984 26.75C199.047 26.5938 199.062 26.4219 199.031 26.2344C200.156 25.5156 201.172 24.6875 202.078 23.75C203.016 22.8125 204.078 22.0312 205.266 21.4062C205.359 21.125 205.516 20.8906 205.734 20.7031C205.953 20.5156 206.125 20.2969 206.25 20.0469C207.25 19.7656 208.156 19.3438 208.969 18.7812C209.781 18.2188 210.641 17.7188 211.547 17.2812C212.047 17 212.516 16.8125 212.953 16.7188C213.422 16.5938 213.922 16.4688 214.453 16.3438C214.641 16.2812 214.812 16.2344 214.969 16.2031C215.125 16.1719 215.297 16.1562 215.484 16.1562C216.047 16.1562 216.594 16.2656 217.125 16.4844C217.656 16.6719 218.203 16.7656 218.766 16.7656C218.922 16.7656 219.047 16.7656 219.141 16.7656C219.266 16.7344 219.391 16.7031 219.516 16.6719C220.047 17.3281 220.719 17.8281 221.531 18.1719C221.719 18.6406 221.938 19.0469 222.188 19.3906C222.469 19.7344 222.75 20.0781 223.031 20.4219C223.312 20.7344 223.562 21.0938 223.781 21.5C224.031 21.875 224.188 22.3281 224.25 22.8594ZM219.562 25.2969C219.562 25.1406 219.547 25 219.516 24.875C219.203 24.7812 218.906 24.6562 218.625 24.5C218.344 24.3438 218.031 24.2656 217.688 24.2656C217.469 24.2656 217.25 24.3125 217.031 24.4062C217 24.1875 216.906 24.0312 216.75 23.9375C216.625 23.8438 216.469 23.7656 216.281 23.7031C216.125 23.6094 215.953 23.5469 215.766 23.5156C215.609 23.4531 215.469 23.3594 215.344 23.2344C215.25 22.9844 215.141 22.7344 215.016 22.4844C214.922 22.2031 214.734 22 214.453 21.875C214.172 22.1562 213.844 22.3906 213.469 22.5781C213.094 22.7344 212.703 22.8906 212.297 23.0469C211.922 23.2031 211.547 23.3906 211.172 23.6094C210.828 23.8281 210.531 24.0938 210.281 24.4062H209.438C209.25 24.75 208.984 25.0156 208.641 25.2031C208.297 25.3594 208 25.5938 207.75 25.9062C207.25 26.1562 206.781 26.4688 206.344 26.8438C205.938 27.1875 205.531 27.5625 205.125 27.9688C204.719 28.3438 204.312 28.7344 203.906 29.1406C203.531 29.5469 203.125 29.9219 202.688 30.2656C202.281 31.1406 201.828 31.9062 201.328 32.5625C200.859 33.1875 200.406 33.8281 199.969 34.4844C199.562 35.1406 199.203 35.8594 198.891 36.6406C198.609 37.3906 198.469 38.3281 198.469 39.4531V39.9219C198.469 40.0781 198.484 40.2344 198.516 40.3906C198.922 40.8281 199.25 41.2969 199.5 41.7969C199.781 42.2969 200.234 42.6562 200.859 42.875C201.484 43.125 202.141 43.2344 202.828 43.2031C203.547 43.1719 204.234 43.25 204.891 43.4375C206.391 43.1562 207.828 42.7031 209.203 42.0781C210.609 41.4219 211.938 40.6406 213.188 39.7344C213.375 39.5781 213.594 39.4219 213.844 39.2656C214.094 39.0781 214.297 38.8906 214.453 38.7031C214.609 38.5469 214.734 38.375 214.828 38.1875C214.953 38 215.078 37.8281 215.203 37.6719C215.453 37.2656 215.734 36.8594 216.047 36.4531C216.359 36.0469 216.688 35.6719 217.031 35.3281C217.188 34.6406 217.391 33.9844 217.641 33.3594C217.891 32.7031 218.141 32.0625 218.391 31.4375C218.641 30.8125 218.844 30.1719 219 29.5156C219.188 28.8594 219.281 28.1719 219.281 27.4531C219.281 27.2969 219.266 27.125 219.234 26.9375C219.234 26.75 219.219 26.5781 219.188 26.4219C219.438 26.0781 219.562 25.7031 219.562 25.2969ZM284.859 61.1562C284.766 61.6875 284.547 62.0625 284.203 62.2812C283.891 62.5312 283.594 62.875 283.312 63.3125H283.125C282.812 63.3125 282.5 63.3438 282.188 63.4062C281.906 63.4688 281.609 63.5469 281.297 63.6406C281.141 63.5781 280.953 63.5312 280.734 63.5C280.516 63.4688 280.375 63.3594 280.312 63.1719C280.062 63.2969 279.719 63.3594 279.281 63.3594C278.562 63.3594 277.875 63.1562 277.219 62.75C276.594 62.3438 275.938 62.0312 275.25 61.8125C275.062 61.4375 274.828 61.0938 274.547 60.7812C274.297 60.5 274.031 60.2188 273.75 59.9375C273.5 59.6562 273.25 59.3594 273 59.0469C272.75 58.7344 272.547 58.3594 272.391 57.9219C272.328 57.7344 272.25 57.625 272.156 57.5938C272.062 57.5625 271.922 57.5625 271.734 57.5938C271.766 57.25 271.719 56.9531 271.594 56.7031C271.5 56.4531 271.266 56.2969 270.891 56.2344C270.891 55.8281 270.828 55.4844 270.703 55.2031C270.578 54.9219 270.422 54.6719 270.234 54.4531C270.078 54.2656 269.891 54.0625 269.672 53.8438C269.484 53.625 269.328 53.3594 269.203 53.0469C268.922 52.9844 268.641 52.9375 268.359 52.9062C268.109 52.9062 267.828 52.9062 267.516 52.9062C266.016 52.9062 264.562 53.1875 263.156 53.75C263 53.8125 262.828 53.8906 262.641 53.9844C262.484 54.0781 262.328 54.1562 262.172 54.2188C262.109 54.2188 262.047 54.2188 261.984 54.2188C261.953 54.25 261.906 54.2656 261.844 54.2656C261.625 54.2656 261.422 54.2188 261.234 54.125C261.047 54.0625 260.844 54.0312 260.625 54.0312C260.531 54.0312 260.422 54.0469 260.297 54.0781C260.203 54.1406 260.109 54.1875 260.016 54.2188C259.547 54.375 259.109 54.4688 258.703 54.5C257.422 54.75 256.062 54.9375 254.625 55.0625C253.219 55.1875 251.922 55.5156 250.734 56.0469C250.484 56.1719 250.328 56.3594 250.266 56.6094C250.203 56.8906 250.188 57.1562 250.219 57.4062C249.875 57.6562 249.609 57.9844 249.422 58.3906C249.266 58.7969 249.109 59.2188 248.953 59.6562C248.828 60.125 248.688 60.5781 248.531 61.0156C248.375 61.4531 248.156 61.8281 247.875 62.1406C247.969 62.3281 248.016 62.5312 248.016 62.75C248.016 63.2188 247.859 63.6875 247.547 64.1562C247.234 64.625 247 65.0781 246.844 65.5156C246.688 65.9531 246.562 66.375 246.469 66.7812C246.375 67.2188 246.234 67.6094 246.047 67.9531C245.859 68.2969 245.609 68.5781 245.297 68.7969C244.953 69.0156 244.484 69.125 243.891 69.125C243.328 69.125 242.844 69.0156 242.438 68.7969C242.031 68.5781 241.703 68.2969 241.453 67.9531C241.203 67.6094 241 67.2031 240.844 66.7344C240.688 66.2656 240.562 65.7969 240.469 65.3281C240.812 64.6406 241.141 64.0469 241.453 63.5469C241.766 63.0469 242 62.4062 242.156 61.625C242.719 61.2188 243.141 60.7188 243.422 60.125C243.672 59.5625 243.812 58.9375 243.844 58.25C244.188 58.0312 244.438 57.7344 244.594 57.3594C244.719 57.0156 244.797 56.6406 244.828 56.2344C244.078 56.1719 243.297 56.1094 242.484 56.0469C241.641 55.9844 240.859 55.8281 240.141 55.5781C240.141 55.5156 240.156 55.4531 240.188 55.3906C240.188 55.3281 240.188 55.2656 240.188 55.2031C240.188 54.7969 240.094 54.4219 239.906 54.0781C239.719 53.7656 239.625 53.4219 239.625 53.0469V52.6719C239.875 52.4219 240.109 52.1562 240.328 51.875C240.516 51.625 240.719 51.3906 240.938 51.1719C241.156 50.9531 241.406 50.7656 241.688 50.6094C241.969 50.4844 242.328 50.4219 242.766 50.4219C243.359 50.4219 243.938 50.4531 244.5 50.5156C245.062 50.6094 245.641 50.6562 246.234 50.6562C246.641 50.6562 247.062 50.6094 247.5 50.5156C248.188 49.1094 248.797 47.6875 249.328 46.25C249.859 44.7812 250.266 43.2969 250.547 41.7969C250.766 41.4844 250.969 41.125 251.156 40.7188C251.344 40.2812 251.484 39.8281 251.578 39.3594C251.703 38.8906 251.781 38.4375 251.812 38C251.875 37.5312 251.906 37.1094 251.906 36.7344C252.25 36.3281 252.484 35.8281 252.609 35.2344C252.766 34.6406 252.891 34.0312 252.984 33.4062C253.078 32.75 253.172 32.1094 253.266 31.4844C253.391 30.8594 253.609 30.3125 253.922 29.8438V29.4219C253.953 28.9531 253.906 28.5312 253.781 28.1562C253.938 28.0938 254.031 27.9531 254.062 27.7344C254.094 27.5156 254.156 27.3281 254.25 27.1719C254.281 25.7344 254.438 24.3281 254.719 22.9531C255 21.5469 255.234 20.1406 255.422 18.7344V18.5938C255.422 18.4375 255.359 18.3594 255.234 18.3594C255.141 18.3281 255.094 18.2344 255.094 18.0781C255.094 17.7969 255.125 17.4219 255.188 16.9531C255.281 16.4844 255.344 16.0938 255.375 15.7812C255.562 14.0938 255.656 12.4219 255.656 10.7656C255.656 9.35938 255.609 7.96875 255.516 6.59375C255.422 5.21875 255.328 3.82812 255.234 2.42188L255.609 1.85938C255.734 1.67188 255.844 1.48438 255.938 1.29688C256.25 1.17187 256.5 1.04688 256.688 0.921875C256.906 0.765625 257.188 0.6875 257.531 0.6875C257.625 0.6875 257.703 0.703125 257.766 0.734375C257.828 0.734375 257.891 0.734375 257.953 0.734375C258.141 0.859375 258.281 1.03125 258.375 1.25C258.5 1.46875 258.609 1.67188 258.703 1.85938C258.828 2.04688 258.984 2.20312 259.172 2.32812C259.359 2.45312 259.625 2.48438 259.969 2.42188C260.125 3.29688 260.562 3.75 261.281 3.78125C261.438 4.21875 261.625 4.65625 261.844 5.09375C262.094 5.53125 262.422 5.875 262.828 6.125C262.797 6.25 262.781 6.42188 262.781 6.64062C262.781 7.07812 262.875 7.5 263.062 7.90625C263.281 8.3125 263.547 8.6875 263.859 9.03125V9.125C263.859 9.46875 263.734 9.70312 263.484 9.82812C263.766 10.1406 263.969 10.5156 264.094 10.9531C264.219 11.3906 264.328 11.8438 264.422 12.3125C264.516 12.75 264.625 13.1719 264.75 13.5781C264.906 13.9844 265.156 14.2969 265.5 14.5156V14.6562C265.5 14.8125 265.438 14.9062 265.312 14.9375C265.219 14.9688 265.172 15.0625 265.172 15.2188C265.734 16.25 266.125 17.375 266.344 18.5938C266.562 19.8125 266.844 20.9844 267.188 22.1094C267.312 22.2344 267.453 22.3125 267.609 22.3438C267.797 22.375 267.938 22.4531 268.031 22.5781C267.844 22.7031 267.75 22.9219 267.75 23.2344C267.75 23.5469 267.672 23.7812 267.516 23.9375C267.766 24.1562 267.875 24.4844 267.844 24.9219C267.844 25.3281 267.969 25.625 268.219 25.8125V26C268.219 26.125 268.188 26.2344 268.125 26.3281C268.062 26.3906 268.031 26.4844 268.031 26.6094V26.7969C268.281 27.8906 268.469 28.9844 268.594 30.0781C268.75 31.1719 268.906 32.2656 269.062 33.3594C269.219 34.4531 269.391 35.5469 269.578 36.6406C269.766 37.7031 270.031 38.75 270.375 39.7812C270.406 39.8125 270.422 39.8594 270.422 39.9219C270.422 40.0781 270.359 40.1719 270.234 40.2031C270.109 40.2031 270.047 40.2812 270.047 40.4375C270.047 40.5938 270.094 40.7812 270.188 41C270.312 41.1875 270.438 41.3438 270.562 41.4688C270.531 41.5938 270.516 41.7812 270.516 42.0312C270.516 42.5 270.594 42.9531 270.75 43.3906C270.938 43.8281 271.125 44.2656 271.312 44.7031C271.531 45.1094 271.719 45.5469 271.875 46.0156C272.031 46.4844 272.094 46.9844 272.062 47.5156C272.25 47.7969 272.484 48.0312 272.766 48.2188C273.078 48.4062 273.391 48.5781 273.703 48.7344C274.016 48.8906 274.297 49.0781 274.547 49.2969C274.828 49.5156 275.016 49.8125 275.109 50.1875C274.859 50.4062 274.688 50.6719 274.594 50.9844C274.5 51.3281 274.328 51.625 274.078 51.875C274.297 52.4062 274.547 52.8906 274.828 53.3281C275.141 53.7969 275.453 54.25 275.766 54.6875L276.75 56C277.094 56.4375 277.391 56.9062 277.641 57.4062C277.984 57.4062 278.234 57.5 278.391 57.6875C278.547 57.875 278.797 57.9531 279.141 57.9219C279.266 58.1719 279.312 58.4531 279.281 58.7656C279.906 58.5469 280.531 58.4375 281.156 58.4375C281.5 58.4375 281.812 58.4531 282.094 58.4844C282.406 58.5156 282.719 58.5312 283.031 58.5312C283.406 58.5312 283.734 58.4844 284.016 58.3906C284.141 58.5781 284.234 58.7812 284.297 59C284.359 59.25 284.406 59.5 284.438 59.75L284.578 60.5C284.641 60.75 284.734 60.9688 284.859 61.1562ZM267.188 48.1719C266.75 46.0156 266.297 43.875 265.828 41.75C265.391 39.5938 265 37.4219 264.656 35.2344C264.469 34.0781 264.328 32.9219 264.234 31.7656C264.141 30.6094 264.016 29.4688 263.859 28.3438C263.734 27.1875 263.547 26.0469 263.297 24.9219C263.078 23.7969 262.75 22.6875 262.312 21.5938V21.5C262.312 21.4062 262.344 21.3281 262.406 21.2656C262.469 21.2031 262.5 21.0938 262.5 20.9375V20.75C262.094 20.4688 261.812 20.0781 261.656 19.5781C261.5 19.0469 261.359 18.5 261.234 17.9375C261.141 17.3438 261 16.7812 260.812 16.25C260.656 15.6875 260.375 15.2188 259.969 14.8438C259.812 16.6562 259.641 18.4688 259.453 20.2812C259.297 22.0625 259.188 23.8594 259.125 25.6719C258.812 25.8594 258.609 26.1719 258.516 26.6094C258.422 27.0469 258.375 27.4375 258.375 27.7812C258.375 28.0312 258.391 28.2969 258.422 28.5781C258.453 28.8281 258.516 29.0938 258.609 29.375C258.047 30.7812 257.641 32.2344 257.391 33.7344C257.141 35.2031 256.859 36.6719 256.547 38.1406C256.516 38.2344 256.453 38.4531 256.359 38.7969C256.297 39.1094 256.219 39.4375 256.125 39.7812C256.031 40.125 255.953 40.4375 255.891 40.7188C255.828 40.9688 255.797 41.1094 255.797 41.1406C255.766 41.3594 255.75 41.5781 255.75 41.7969C255.781 42.0156 255.797 42.2344 255.797 42.4531L255.094 43.1562C254.969 44.3438 254.734 45.5 254.391 46.625C254.078 47.7188 253.75 48.8438 253.406 50C253.625 50.0312 253.828 50.0469 254.016 50.0469C254.234 50.0781 254.453 50.0938 254.672 50.0938C255.672 50.0938 256.672 50.0312 257.672 49.9062C258.703 49.75 259.719 49.6094 260.719 49.4844C261.062 49.4219 261.422 49.375 261.797 49.3438C262.172 49.2812 262.531 49.25 262.875 49.25C263.031 49.2188 263.219 49.2188 263.438 49.25C263.656 49.25 263.844 49.2344 264 49.2031C264.25 49.1406 264.406 49.0469 264.469 48.9219C264.562 48.7656 264.734 48.6719 264.984 48.6406C265.172 48.7344 265.391 48.7812 265.641 48.7812C265.922 48.7812 266.188 48.7188 266.438 48.5938C266.688 48.4688 266.938 48.3281 267.188 48.1719ZM313.172 41.5625C313.172 41.875 313.078 42.1406 312.891 42.3594C312.734 42.5469 312.531 42.7188 312.281 42.875C312.062 43.0312 311.828 43.1719 311.578 43.2969C311.359 43.4219 311.156 43.5781 310.969 43.7656C310.844 43.8906 310.75 44.0469 310.688 44.2344C310.656 44.3906 310.578 44.5 310.453 44.5625C310.266 44.7188 310.062 44.8125 309.844 44.8438C309.625 44.875 309.391 44.9219 309.141 44.9844C308.922 45.0156 308.703 45.0781 308.484 45.1719C308.266 45.2344 308.078 45.375 307.922 45.5938C306.453 45.75 305 45.9531 303.562 46.2031C302.156 46.4531 300.703 46.5781 299.203 46.5781C298.922 46.5781 298.609 46.6094 298.266 46.6719C297.953 46.7031 297.656 46.7344 297.375 46.7656C296.719 46.8281 296.062 46.875 295.406 46.9062C294.781 46.9375 294.141 46.9531 293.484 46.9531C292.578 46.9531 291.672 46.9219 290.766 46.8594C289.859 46.7656 288.969 46.625 288.094 46.4375C287.875 46.2812 287.625 46.1562 287.344 46.0625C287.062 45.9688 286.766 45.875 286.453 45.7812C286.172 45.6875 285.906 45.5781 285.656 45.4531C285.406 45.3281 285.219 45.1406 285.094 44.8906C284.625 44.8594 284.203 44.7656 283.828 44.6094C283.484 44.4531 283.156 44.2812 282.844 44.0938C282.562 43.875 282.266 43.6562 281.953 43.4375C281.641 43.2188 281.281 43.0312 280.875 42.875C280.562 42.4375 280.234 42.0156 279.891 41.6094C279.578 41.1719 279.188 40.8125 278.719 40.5312C278.625 39.9375 278.469 39.3438 278.25 38.75C278.062 38.1562 277.859 37.5781 277.641 37.0156C277.453 36.4219 277.297 35.8281 277.172 35.2344C277.016 34.6406 276.938 34.0312 276.938 33.4062C276.938 32.9688 277 32.4375 277.125 31.8125C277.25 31.1875 277.406 30.5625 277.594 29.9375C277.812 29.2812 278.062 28.6719 278.344 28.1094C278.625 27.5469 278.906 27.0938 279.188 26.75C279.281 26.6562 279.391 26.5781 279.516 26.5156C279.641 26.4531 279.75 26.3594 279.844 26.2344C280.125 25.9219 280.422 25.6719 280.734 25.4844C281.047 25.2656 281.375 25.0156 281.719 24.7344C281.844 24.6094 281.938 24.4688 282 24.3125C282.094 24.1562 282.219 24.0156 282.375 23.8906C282.469 23.8281 282.594 23.8125 282.75 23.8438C282.938 23.875 283.094 23.8438 283.219 23.75C283.344 23.6562 283.406 23.5469 283.406 23.4219C283.406 23.2969 283.453 23.1875 283.547 23.0938C283.578 23.0625 283.672 23.0625 283.828 23.0938C283.984 23.0938 284.078 23.0938 284.109 23.0938C284.328 23.0938 284.578 22.9531 284.859 22.6719C285.141 22.3594 285.375 22.1562 285.562 22.0625C285.781 21.9375 286 21.8594 286.219 21.8281C286.438 21.7656 286.672 21.6719 286.922 21.5469C287.266 21.3594 287.594 21.2188 287.906 21.125C288.25 21 288.594 20.8594 288.938 20.7031C289.125 20.6406 289.297 20.5312 289.453 20.375C289.609 20.2188 289.766 20.1094 289.922 20.0469C290.203 19.9531 290.5 19.8906 290.812 19.8594C291.156 19.7969 291.469 19.75 291.75 19.7188C292.062 19.6562 292.359 19.5938 292.641 19.5312C292.953 19.4375 293.234 19.2812 293.484 19.0625H293.859C294.422 19.0625 294.969 18.9844 295.5 18.8281C296.031 18.6719 296.578 18.5938 297.141 18.5938C297.297 18.5938 297.531 18.625 297.844 18.6875C298.094 18.5312 298.375 18.4531 298.688 18.4531C299.219 18.4531 299.75 18.5938 300.281 18.875C300.812 19.125 301.359 19.25 301.922 19.25H302.203C302.328 19.25 302.453 19.2344 302.578 19.2031C302.922 19.5469 303.328 19.7344 303.797 19.7656C304.297 19.7969 304.719 19.9375 305.062 20.1875C305.281 20.375 305.453 20.5938 305.578 20.8438C305.734 21.0938 305.859 21.3594 305.953 21.6406L306.234 22.4844C306.328 22.7656 306.453 23.0156 306.609 23.2344C306.453 24.3594 305.984 25.2656 305.203 25.9531C304.453 26.6094 303.5 26.9375 302.344 26.9375C301.906 26.9375 301.531 26.8906 301.219 26.7969C300.938 26.6719 300.672 26.5469 300.422 26.4219C300.203 26.2969 299.969 26.1719 299.719 26.0469C299.469 25.9219 299.188 25.8281 298.875 25.7656C299.219 25.1406 299.438 24.4688 299.531 23.75C299.188 23.5938 298.844 23.4844 298.5 23.4219C298.156 23.3594 297.828 23.25 297.516 23.0938C296.672 23.3125 295.844 23.4688 295.031 23.5625C294.25 23.625 293.516 23.9531 292.828 24.5469C292.672 24.5156 292.5 24.4844 292.312 24.4531C292.156 24.4219 292 24.4062 291.844 24.4062C291.656 24.4062 291.281 24.5469 290.719 24.8281C290.156 25.0781 289.547 25.375 288.891 25.7188C288.266 26.0625 287.656 26.4062 287.062 26.75C286.5 27.0938 286.109 27.3281 285.891 27.4531C285.641 27.6094 285.422 27.7969 285.234 28.0156C285.047 28.2344 284.859 28.4688 284.672 28.7188C284.484 28.9375 284.297 29.1562 284.109 29.375C283.922 29.5625 283.688 29.7031 283.406 29.7969C283.344 30.1406 283.234 30.4375 283.078 30.6875C282.922 30.9375 282.75 31.2031 282.562 31.4844C282.531 32.0469 282.469 32.6094 282.375 33.1719C282.312 33.7344 282.281 34.2969 282.281 34.8594V35.4688C282.281 35.6562 282.312 35.8281 282.375 35.9844C282.688 36.3906 282.938 36.8438 283.125 37.3438C283.344 37.8438 283.703 38.1875 284.203 38.375C284.234 38.5 284.219 38.5781 284.156 38.6094C284.125 38.6406 284.094 38.7188 284.062 38.8438C284.25 39.1875 284.484 39.4688 284.766 39.6875C285.078 39.875 285.391 40.0781 285.703 40.2969C286.016 40.4844 286.312 40.6875 286.594 40.9062C286.875 41.125 287.094 41.4062 287.25 41.75C287.719 41.75 288.156 41.8281 288.562 41.9844C289 42.1406 289.406 42.3125 289.781 42.5C290.188 42.6875 290.562 42.8594 290.906 43.0156C291.281 43.1719 291.656 43.25 292.031 43.25C292.375 43.25 292.688 43.2031 292.969 43.1094C293.781 43.3594 294.594 43.5469 295.406 43.6719C296.25 43.7656 297.094 43.8125 297.938 43.8125C298.969 43.8125 300 43.75 301.031 43.625C302.062 43.5 303.094 43.3906 304.125 43.2969C304.5 43.2344 304.859 43.2031 305.203 43.2031C305.547 43.2031 305.891 43.1719 306.234 43.1094C306.672 43.0469 307.078 42.8438 307.453 42.5C307.859 42.1562 308.25 41.9062 308.625 41.75C308.969 41.9688 309.375 42.0781 309.844 42.0781C310.375 42.0781 310.891 42 311.391 41.8438C311.891 41.6562 312.406 41.5625 312.938 41.5625H313.172ZM342.469 22.8594C342.281 23.1406 342.172 23.4531 342.141 23.7969C342.109 24.1406 342.094 24.4531 342.094 24.7344C342.094 25.1094 342.094 25.4844 342.094 25.8594C342.125 26.2031 342.141 26.5469 342.141 26.8906V27.5938C342.078 27.8125 341.984 28.0312 341.859 28.25C341.734 28.4688 341.641 28.6875 341.578 28.9062C341.141 30.0625 340.922 31.2188 340.922 32.375V32.4688C340.766 32.8438 340.609 33.1875 340.453 33.5C340.328 33.8125 340.203 34.125 340.078 34.4375C339.953 34.7188 339.859 35.0312 339.797 35.375C339.734 35.6875 339.719 36.0625 339.75 36.5C339.312 37.5938 338.734 38.5938 338.016 39.5C337.297 40.375 336.594 41.2812 335.906 42.2188C335.25 42.4688 334.641 42.7969 334.078 43.2031C333.547 43.6094 333.031 44.0625 332.531 44.5625C331.562 44.875 330.609 45.2344 329.672 45.6406C328.734 46.0469 327.891 46.5938 327.141 47.2812C326.547 47.3438 325.953 47.4375 325.359 47.5625C324.766 47.6875 324.188 47.875 323.625 48.125H323.062C322.781 48.125 322.578 48.0625 322.453 47.9375C322.047 48.1562 321.625 48.3125 321.188 48.4062C320.75 48.4688 320.312 48.5 319.875 48.5C319.312 48.5 318.75 48.4688 318.188 48.4062C317.656 48.3125 317.109 48.2188 316.547 48.125C316.234 47.6875 315.797 47.3594 315.234 47.1406C314.672 46.8906 314.172 46.6562 313.734 46.4375C312.828 45.1875 312.172 43.9844 311.766 42.8281C311.359 41.6406 310.938 40.3125 310.5 38.8438C310.562 38.4062 310.672 37.9844 310.828 37.5781C310.984 37.1406 311.047 36.6719 311.016 36.1719C311.578 34.5469 312.312 33.0781 313.219 31.7656C314.156 30.4219 315.219 29.1406 316.406 27.9219C316.406 27.7344 316.438 27.5781 316.5 27.4531C316.594 27.3281 316.609 27.1406 316.547 26.8906C316.578 26.9219 316.641 26.9375 316.734 26.9375C316.984 26.9375 317.141 26.875 317.203 26.75C317.266 26.5938 317.281 26.4219 317.25 26.2344C318.375 25.5156 319.391 24.6875 320.297 23.75C321.234 22.8125 322.297 22.0312 323.484 21.4062C323.578 21.125 323.734 20.8906 323.953 20.7031C324.172 20.5156 324.344 20.2969 324.469 20.0469C325.469 19.7656 326.375 19.3438 327.188 18.7812C328 18.2188 328.859 17.7188 329.766 17.2812C330.266 17 330.734 16.8125 331.172 16.7188C331.641 16.5938 332.141 16.4688 332.672 16.3438C332.859 16.2812 333.031 16.2344 333.188 16.2031C333.344 16.1719 333.516 16.1562 333.703 16.1562C334.266 16.1562 334.812 16.2656 335.344 16.4844C335.875 16.6719 336.422 16.7656 336.984 16.7656C337.141 16.7656 337.266 16.7656 337.359 16.7656C337.484 16.7344 337.609 16.7031 337.734 16.6719C338.266 17.3281 338.938 17.8281 339.75 18.1719C339.938 18.6406 340.156 19.0469 340.406 19.3906C340.688 19.7344 340.969 20.0781 341.25 20.4219C341.531 20.7344 341.781 21.0938 342 21.5C342.25 21.875 342.406 22.3281 342.469 22.8594ZM337.781 25.2969C337.781 25.1406 337.766 25 337.734 24.875C337.422 24.7812 337.125 24.6562 336.844 24.5C336.562 24.3438 336.25 24.2656 335.906 24.2656C335.688 24.2656 335.469 24.3125 335.25 24.4062C335.219 24.1875 335.125 24.0312 334.969 23.9375C334.844 23.8438 334.688 23.7656 334.5 23.7031C334.344 23.6094 334.172 23.5469 333.984 23.5156C333.828 23.4531 333.688 23.3594 333.562 23.2344C333.469 22.9844 333.359 22.7344 333.234 22.4844C333.141 22.2031 332.953 22 332.672 21.875C332.391 22.1562 332.062 22.3906 331.688 22.5781C331.312 22.7344 330.922 22.8906 330.516 23.0469C330.141 23.2031 329.766 23.3906 329.391 23.6094C329.047 23.8281 328.75 24.0938 328.5 24.4062H327.656C327.469 24.75 327.203 25.0156 326.859 25.2031C326.516 25.3594 326.219 25.5938 325.969 25.9062C325.469 26.1562 325 26.4688 324.562 26.8438C324.156 27.1875 323.75 27.5625 323.344 27.9688C322.938 28.3438 322.531 28.7344 322.125 29.1406C321.75 29.5469 321.344 29.9219 320.906 30.2656C320.5 31.1406 320.047 31.9062 319.547 32.5625C319.078 33.1875 318.625 33.8281 318.188 34.4844C317.781 35.1406 317.422 35.8594 317.109 36.6406C316.828 37.3906 316.688 38.3281 316.688 39.4531V39.9219C316.688 40.0781 316.703 40.2344 316.734 40.3906C317.141 40.8281 317.469 41.2969 317.719 41.7969C318 42.2969 318.453 42.6562 319.078 42.875C319.703 43.125 320.359 43.2344 321.047 43.2031C321.766 43.1719 322.453 43.25 323.109 43.4375C324.609 43.1562 326.047 42.7031 327.422 42.0781C328.828 41.4219 330.156 40.6406 331.406 39.7344C331.594 39.5781 331.812 39.4219 332.062 39.2656C332.312 39.0781 332.516 38.8906 332.672 38.7031C332.828 38.5469 332.953 38.375 333.047 38.1875C333.172 38 333.297 37.8281 333.422 37.6719C333.672 37.2656 333.953 36.8594 334.266 36.4531C334.578 36.0469 334.906 35.6719 335.25 35.3281C335.406 34.6406 335.609 33.9844 335.859 33.3594C336.109 32.7031 336.359 32.0625 336.609 31.4375C336.859 30.8125 337.062 30.1719 337.219 29.5156C337.406 28.8594 337.5 28.1719 337.5 27.4531C337.5 27.2969 337.484 27.125 337.453 26.9375C337.453 26.75 337.438 26.5781 337.406 26.4219C337.656 26.0781 337.781 25.7031 337.781 25.2969ZM370.5 44.0938C370.5 44.625 370.359 45.0938 370.078 45.5C369.828 45.875 369.734 46.3438 369.797 46.9062C369.359 47.1562 369 47.4844 368.719 47.8906C368.438 48.2969 368.172 48.7188 367.922 49.1562C365.859 50.5 363.641 51.5781 361.266 52.3906C358.922 53.2344 356.5 53.6562 354 53.6562C353.844 53.6562 353.703 53.5781 353.578 53.4219C353.453 53.2969 353.328 53.1562 353.203 53C353.078 52.8438 352.938 52.6875 352.781 52.5312C352.656 52.4062 352.5 52.3438 352.312 52.3438C352.094 52.3438 351.922 52.3906 351.797 52.4844C351.797 52.4219 351.797 52.3594 351.797 52.2969C351.828 52.2656 351.844 52.2188 351.844 52.1562C351.844 51.7812 351.797 51.3906 351.703 50.9844C351.609 50.6094 351.562 50.2344 351.562 49.8594C351.562 49.4219 351.641 49.0625 351.797 48.7812H352.359C352.672 48.7812 352.969 48.7656 353.25 48.7344C353.562 48.6719 353.891 48.6406 354.234 48.6406C354.578 48.6406 354.891 48.7344 355.172 48.9219C356.891 48.8594 358.516 48.5469 360.047 47.9844C361.609 47.3906 363.188 46.8125 364.781 46.25C365.031 45.9062 365.172 45.5312 365.203 45.125C365.266 44.6875 365.391 44.2812 365.578 43.9062C364.766 43.2188 363.938 42.6875 363.094 42.3125C362.281 41.9062 361.328 41.7656 360.234 41.8906C359.578 41.4844 358.875 41.25 358.125 41.1875C357.406 41.125 356.672 41.0312 355.922 40.9062C355.734 40.875 355.531 40.8438 355.312 40.8125C355.125 40.75 354.922 40.7188 354.703 40.7188C354.547 40.7188 354.391 40.7656 354.234 40.8594C354.109 40.9219 354.078 41.0312 354.141 41.1875C353.984 40.9375 353.766 40.7969 353.484 40.7656C353.234 40.7031 353.016 40.5781 352.828 40.3906C351.828 40.3281 350.953 40.1562 350.203 39.875C349.453 39.5625 348.625 39.2188 347.719 38.8438C347.469 38.75 347.219 38.6875 346.969 38.6562C346.75 38.5938 346.531 38.5 346.312 38.375C345.75 38.0938 345.297 37.7188 344.953 37.25C344.609 36.7812 344.344 36.2656 344.156 35.7031C343.938 35.1094 343.781 34.5 343.688 33.875C343.594 33.25 343.5 32.6719 343.406 32.1406C343.688 31.6406 343.953 31.125 344.203 30.5938C344.422 30.0625 344.609 29.5 344.766 28.9062C344.953 28.8125 345.141 28.7344 345.328 28.6719C345.516 28.6094 345.719 28.5312 345.938 28.4375C345.906 28.375 345.891 28.2969 345.891 28.2031C345.891 28.0469 345.938 27.8906 346.031 27.7344C346.156 27.5781 346.188 27.4219 346.125 27.2656C346.812 26.6406 347.469 26 348.094 25.3438C348.75 24.6562 349.312 23.9062 349.781 23.0938C350.25 22.9375 350.625 22.7031 350.906 22.3906C351.188 22.0781 351.469 21.7656 351.75 21.4531C352.031 21.1094 352.344 20.8125 352.688 20.5625C353.031 20.2812 353.469 20.1094 354 20.0469C354.125 19.8281 354.297 19.6562 354.516 19.5312C354.734 19.375 354.953 19.2344 355.172 19.1094C355.391 18.9844 355.594 18.8438 355.781 18.6875C355.969 18.5312 356.109 18.3125 356.203 18.0312C356.703 18.0312 357.156 17.9375 357.562 17.75C358 17.5625 358.422 17.3594 358.828 17.1406C359.234 16.9219 359.641 16.7188 360.047 16.5312C360.484 16.3438 360.953 16.25 361.453 16.25C361.578 16.25 361.703 16.2656 361.828 16.2969C361.953 16.2969 362.094 16.3125 362.25 16.3438C362.469 16.5625 362.609 16.8281 362.672 17.1406C362.766 17.4219 362.828 17.7344 362.859 18.0781C362.891 18.4219 362.906 18.7656 362.906 19.1094C362.938 19.4531 363 19.7656 363.094 20.0469C362.812 20.5781 362.5 21.1094 362.156 21.6406C361.844 22.1719 361.422 22.5781 360.891 22.8594H360.797C360.578 22.8906 360.375 22.8438 360.188 22.7188C360 22.5938 359.781 22.5312 359.531 22.5312C359.375 22.5312 359.25 22.5781 359.156 22.6719L358.922 22.9062C358.859 22.9688 358.766 23.0312 358.641 23.0938C358.547 23.1562 358.406 23.1562 358.219 23.0938C357.781 23.25 357.609 23.5156 357.703 23.8906C357.109 23.9531 356.609 24.1406 356.203 24.4531C355.797 24.7344 355.422 25.0625 355.078 25.4375C354.734 25.7812 354.391 26.1094 354.047 26.4219C353.703 26.7031 353.297 26.8594 352.828 26.8906C352.297 27.8281 351.641 28.6562 350.859 29.375C350.109 30.0938 349.484 30.9062 348.984 31.8125C349.078 32.0625 349.141 32.3281 349.172 32.6094C349.203 32.8906 349.25 33.1875 349.312 33.5C349.594 33.875 349.922 34.2031 350.297 34.4844C350.703 34.7656 351.094 35.0469 351.469 35.3281H351.609C352.234 35.3281 352.812 35.4531 353.344 35.7031C353.875 35.9219 354.438 36.0312 355.031 36.0312C355.344 36.0312 355.609 35.9688 355.828 35.8438C356.641 36.0312 357.438 36.1875 358.219 36.3125C359.031 36.4375 359.844 36.5312 360.656 36.5938C361.062 36.6562 361.469 36.6875 361.875 36.6875C362.312 36.6875 362.719 36.7344 363.094 36.8281C363.438 36.9219 363.781 37.0469 364.125 37.2031C364.469 37.3281 364.812 37.4688 365.156 37.625C365.875 37.9375 366.547 38.2812 367.172 38.6562C367.828 39.0312 368.406 39.4844 368.906 40.0156C369.406 40.5156 369.797 41.1094 370.078 41.7969C370.359 42.4531 370.5 43.2188 370.5 44.0938ZM411.234 19.8594C411.109 20.2656 410.906 20.6406 410.625 20.9844L409.828 21.9688C409.578 22.2812 409.359 22.625 409.172 23C409.016 23.3438 408.969 23.75 409.031 24.2188C408.969 24.2188 408.891 24.2188 408.797 24.2188C408.703 24.1875 408.625 24.1719 408.562 24.1719C408.062 24.1719 407.672 24.2969 407.391 24.5469C407.141 24.7656 406.797 24.9531 406.359 25.1094C406.297 24.9219 406.219 24.75 406.125 24.5938C406.031 24.4062 405.891 24.2812 405.703 24.2188C404.953 24.375 404.203 24.5 403.453 24.5938C402.703 24.6562 401.953 24.75 401.203 24.875C400.859 24.9375 400.516 25.0312 400.172 25.1562C399.828 25.25 399.469 25.3438 399.094 25.4375C398.906 25.5 398.703 25.5312 398.484 25.5312C398.266 25.5 398.047 25.5 397.828 25.5312C397.078 25.5625 396.266 25.625 395.391 25.7188C394.516 25.7812 393.734 26.0156 393.047 26.4219C392.734 26.3594 392.406 26.3125 392.062 26.2812C391.719 26.25 391.375 26.2344 391.031 26.2344C390.281 26.2344 389.453 26.3125 388.547 26.4688C387.672 26.5938 386.891 26.8594 386.203 27.2656C386.047 27.2031 385.875 27.1562 385.688 27.125C385.531 27.0938 385.344 27.0781 385.125 27.0781C385.062 27.0781 385.016 27.0938 384.984 27.125C384.953 27.125 384.906 27.125 384.844 27.125C384.812 27.4062 384.844 27.6875 384.938 27.9688C385.062 28.2188 385.266 28.4219 385.547 28.5781C385.422 28.9219 385.359 29.2969 385.359 29.7031C385.359 30.2344 385.391 30.7656 385.453 31.2969C385.547 31.8281 385.594 32.3594 385.594 32.8906C385.594 33.4844 385.516 33.9531 385.359 34.2969C385.672 35.2344 385.828 36.2344 385.828 37.2969C385.828 37.6719 385.797 38.0469 385.734 38.4219C385.703 38.7656 385.688 39.1406 385.688 39.5469C385.688 39.8906 385.812 40.1719 386.062 40.3906C386.312 40.5781 386.438 40.8438 386.438 41.1875C386.438 41.3125 386.406 41.4375 386.344 41.5625C386.781 41.4688 387.203 41.3438 387.609 41.1875C388.016 41 388.438 40.9062 388.875 40.9062C389.125 40.9062 389.359 40.9531 389.578 41.0469C389.828 41.1406 390.047 41.2656 390.234 41.4219C390.203 41.5781 390.172 41.75 390.141 41.9375C390.141 42.125 390.141 42.3125 390.141 42.5C390.141 42.8438 390.141 43.1719 390.141 43.4844C390.172 43.7656 390.203 44.0781 390.234 44.4219C389.984 44.8594 389.688 45.25 389.344 45.5938C389.031 45.9375 388.812 46.375 388.688 46.9062C388.219 46.9062 387.797 47.0156 387.422 47.2344C387.078 47.4219 386.75 47.6406 386.438 47.8906C386.125 48.1094 385.812 48.3281 385.5 48.5469C385.188 48.7344 384.844 48.8281 384.469 48.8281C384 48.8281 383.672 48.7656 383.484 48.6406C383.297 48.4844 383.156 48.3281 383.062 48.1719C382.969 48.0156 382.875 47.875 382.781 47.75C382.719 47.625 382.562 47.5781 382.312 47.6094C382.25 47.2031 382.125 46.8281 381.938 46.4844C381.75 46.1094 381.547 45.75 381.328 45.4062C381.141 45.0625 380.938 44.7188 380.719 44.375C380.531 44 380.391 43.625 380.297 43.25C380.109 42.4375 380.031 41.5938 380.062 40.7188C380.094 39.8438 379.953 39 379.641 38.1875C379.703 37.75 379.75 37.3125 379.781 36.875C379.812 36.4062 379.828 35.9531 379.828 35.5156C379.828 34.6406 379.797 33.7812 379.734 32.9375C379.703 32.0625 379.672 31.1719 379.641 30.2656C379.422 29.9844 379.281 29.6719 379.219 29.3281C379.188 28.9531 379.156 28.5938 379.125 28.25C379.031 28.1562 378.922 28.0625 378.797 27.9688C378.703 27.875 378.641 27.75 378.609 27.5938C378.359 27.5312 378.172 27.5 378.047 27.5C377.609 27.5 377.234 27.6094 376.922 27.8281C376.641 28.0156 376.375 28.1094 376.125 28.1094C375.875 28.1094 375.641 28.0781 375.422 28.0156C375.203 27.9531 374.984 27.9219 374.766 27.9219C374.578 27.9219 374.469 27.9688 374.438 28.0625C374.438 28.125 374.375 28.1875 374.25 28.25C374.156 28.3125 373.938 28.375 373.594 28.4375C373.25 28.5 372.859 28.5625 372.422 28.625C372.016 28.6562 371.609 28.6875 371.203 28.7188C370.828 28.75 370.578 28.7656 370.453 28.7656C369.953 28.7656 369.578 28.6719 369.328 28.4844C369.047 28.2656 368.719 28.0312 368.344 27.7812C368.406 27.5938 368.438 27.4688 368.438 27.4062C368.438 27.0938 368.344 26.8438 368.156 26.6562C367.969 26.4375 367.875 26.25 367.875 26.0938C367.875 25.75 368.016 25.4844 368.297 25.2969C368.547 25.1094 368.688 24.8125 368.719 24.4062C369.438 24.0938 370.172 23.8594 370.922 23.7031C371.672 23.5469 372.438 23.4219 373.219 23.3281C374 23.2344 374.766 23.125 375.516 23C376.297 22.875 377.062 22.6719 377.812 22.3906C378.031 22.4219 378.234 22.4531 378.422 22.4844C378.641 22.4844 378.859 22.4844 379.078 22.4844C380.016 22.4844 380.938 22.3906 381.844 22.2031C382.781 21.9844 383.734 21.875 384.703 21.875C384.953 21.875 385.203 21.8906 385.453 21.9219C385.703 21.9531 385.953 22 386.203 22.0625C387.453 21.875 388.688 21.6719 389.906 21.4531C391.156 21.2344 392.438 21.0469 393.75 20.8906C394.375 20.8281 394.984 20.7812 395.578 20.75C396.203 20.6875 396.828 20.6094 397.453 20.5156C397.672 20.4844 397.828 20.4375 397.922 20.375C398.047 20.2812 398.109 20.1094 398.109 19.8594C398.391 19.9844 398.703 20.0469 399.047 20.0469C399.578 20.0469 400.094 19.9531 400.594 19.7656C401.094 19.5781 401.609 19.4844 402.141 19.4844C402.266 19.4844 402.375 19.5 402.469 19.5312C402.562 19.5312 402.656 19.5312 402.75 19.5312C402.969 19.5312 403.078 19.4375 403.078 19.25C403.109 19.0312 403.266 18.8906 403.547 18.8281C403.766 18.7656 404.078 18.7188 404.484 18.6875C404.891 18.6562 405.312 18.625 405.75 18.5938C406.219 18.5312 406.641 18.4688 407.016 18.4062C407.422 18.3125 407.719 18.1875 407.906 18.0312L408.234 17.5156C408.797 17.5469 409.203 17.7969 409.453 18.2656C409.734 18.7031 409.891 19.1875 409.922 19.7188C410.047 19.8438 410.219 19.9062 410.438 19.9062C410.688 19.875 410.906 19.8594 411.094 19.8594H411.234ZM438.094 46.5781C438 47.0156 437.797 47.375 437.484 47.6562C437.203 47.9062 436.859 48.1094 436.453 48.2656C436.047 48.4219 435.625 48.5312 435.188 48.5938C434.781 48.625 434.406 48.6406 434.062 48.6406C433.906 48.6406 433.75 48.6406 433.594 48.6406C433.469 48.6094 433.328 48.5938 433.172 48.5938C433.016 48.5938 432.938 48.6719 432.938 48.8281C432.938 48.9844 432.859 49.0938 432.703 49.1562C432.547 49.0938 432.391 49.0469 432.234 49.0156C432.078 48.9844 431.922 48.9688 431.766 48.9688C431.547 48.9688 431.328 48.9844 431.109 49.0156C430.922 49.0469 430.734 49.0625 430.547 49.0625C430.297 49.0625 430.109 49.0312 429.984 48.9688C429.891 48.9062 429.797 48.8438 429.703 48.7812C429.641 48.6875 429.562 48.5938 429.469 48.5C429.406 48.4062 429.297 48.3281 429.141 48.2656C428.922 48.1719 428.734 48.1562 428.578 48.2188C428.453 48.2812 428.25 48.1875 427.969 47.9375C427.594 47.625 427.266 47.25 426.984 46.8125C426.734 46.3438 426.484 45.8594 426.234 45.3594C425.984 44.8594 425.719 44.3594 425.438 43.8594C425.156 43.3594 424.828 42.9219 424.453 42.5469H424.078C423.516 42.5469 423.125 42.7812 422.906 43.25C422.75 43.1562 422.594 43.0469 422.438 42.9219C422.281 42.7656 422.109 42.6406 421.922 42.5469C421.203 42.7656 420.453 42.9531 419.672 43.1094C418.891 43.2656 418.109 43.3438 417.328 43.3438H416.672C416.484 43.3438 416.281 43.3125 416.062 43.25C415.75 43.375 415.469 43.5312 415.219 43.7188C414.969 43.875 414.688 43.9531 414.375 43.9531C414.188 43.9531 413.969 43.8906 413.719 43.7656C413.531 43.7656 413.438 43.8438 413.438 44C413.469 44.1562 413.375 44.2344 413.156 44.2344H412.734C412.297 44.2344 411.859 44.25 411.422 44.2812C411.016 44.3125 410.594 44.3281 410.156 44.3281C409.562 44.3281 408.953 44.25 408.328 44.0938C408.172 44.1875 408 44.2344 407.812 44.2344C407.688 44.2969 407.594 44.4062 407.531 44.5625C407.469 44.6875 407.406 44.8125 407.344 44.9375C407.281 45.0312 407.188 45.125 407.062 45.2188C406.969 45.2812 406.828 45.2969 406.641 45.2656C406.578 45.6406 406.422 45.9375 406.172 46.1562C405.922 46.375 405.797 46.7031 405.797 47.1406C405.453 47.3281 405.172 47.5625 404.953 47.8438C404.734 48.125 404.516 48.4219 404.297 48.7344C404.078 49.0469 403.844 49.3438 403.594 49.625C403.375 49.9062 403.094 50.125 402.75 50.2812C402.594 50.4688 402.547 50.7656 402.609 51.1719C402.266 51.4531 401.844 51.7031 401.344 51.9219C400.844 52.1406 400.375 52.25 399.938 52.25C399.031 52.25 398.406 51.7656 398.062 50.7969C398.062 50.4844 398.094 50.1562 398.156 49.8125C398.188 49.4375 398.25 49.0938 398.344 48.7812C398.438 48.4375 398.578 48.1406 398.766 47.8906C398.953 47.6094 399.219 47.4062 399.562 47.2812C399.562 47 399.469 46.8125 399.281 46.7188C399.094 46.5938 399.016 46.3906 399.047 46.1094C399.891 45.7031 400.625 45.1719 401.25 44.5156C401.875 43.8594 402.438 43.1719 402.938 42.4531C403.469 41.7031 404 40.9531 404.531 40.2031C405.062 39.4531 405.656 38.7812 406.312 38.1875V37.2031C407.25 36.2031 407.859 35.0781 408.141 33.8281C408.484 33.7656 408.703 33.6094 408.797 33.3594C408.922 33.1094 408.984 32.8125 408.984 32.4688C409.141 32.4688 409.234 32.4062 409.266 32.2812C409.328 32.125 409.469 32.0781 409.688 32.1406C409.969 31.3906 410.281 30.7031 410.625 30.0781C410.969 29.4531 411.312 28.8281 411.656 28.2031C412 27.5469 412.297 26.875 412.547 26.1875C412.828 25.5 413.031 24.7344 413.156 23.8906C413.594 23.8594 413.828 23.6562 413.859 23.2812C413.922 22.875 413.984 22.5156 414.047 22.2031C414.516 21.7656 414.859 21.25 415.078 20.6562C415.328 20.0625 415.547 19.4531 415.734 18.8281C415.922 18.1719 416.125 17.5312 416.344 16.9062C416.594 16.25 416.938 15.6719 417.375 15.1719V15.0312C417.375 14.875 417.312 14.7812 417.188 14.75C417.062 14.6875 417 14.5781 417 14.4219C417.031 14.3906 417.047 14.3594 417.047 14.3281C417.422 14.1719 417.703 13.9219 417.891 13.5781C418.078 13.2031 418.359 12.9375 418.734 12.7812C419.391 13.3125 419.969 13.6406 420.469 13.7656C420.969 13.8594 421.625 13.9375 422.438 14C422.844 14.4375 423.062 14.9688 423.094 15.5938C423.156 16.1875 423.266 16.7812 423.422 17.375C423.672 18.375 423.938 19.3594 424.219 20.3281C424.531 21.2656 424.766 22.2344 424.922 23.2344C425.016 23.8281 425.188 24.3906 425.438 24.9219C425.688 25.4531 425.859 26 425.953 26.5625C426.016 27 426.016 27.5 425.953 28.0625C425.891 28.5938 425.953 29.0625 426.141 29.4688L426.469 30.2188C426.625 30.5625 426.75 30.9219 426.844 31.2969C426.969 31.6719 427.078 32.0469 427.172 32.4219C427.422 33.3594 427.641 34.375 427.828 35.4688C428.047 36.5312 428.375 37.5 428.812 38.375C428.969 38.6875 429.203 38.9062 429.516 39.0312C429.859 39.1562 430.234 39.25 430.641 39.3125C431.047 39.3438 431.438 39.3594 431.812 39.3594C432.219 39.3281 432.562 39.3125 432.844 39.3125H433.312C433.5 39.3125 433.688 39.3438 433.875 39.4062C434 39.6562 434.062 39.875 434.062 40.0625C434.062 40.4375 433.938 40.7344 433.688 40.9531C433.438 41.1719 433.312 41.4219 433.312 41.7031C433.312 41.8594 433.375 42.0312 433.5 42.2188C433.375 42.1875 433.188 42.1719 432.938 42.1719C432.219 42.1719 431.516 42.2969 430.828 42.5469C431.078 43.0781 431.406 43.5312 431.812 43.9062C432.25 44.25 432.703 44.5781 433.172 44.8906C433.484 44.6406 433.812 44.5156 434.156 44.5156C434.531 44.5156 434.875 44.6094 435.188 44.7969C435.531 44.9531 435.891 45.0312 436.266 45.0312C436.547 45.0312 436.75 44.9844 436.875 44.8906C437.125 45.1719 437.328 45.4688 437.484 45.7812C437.641 46.0625 437.844 46.3281 438.094 46.5781ZM423.422 39.0781C423.359 38.5469 423.25 38.1719 423.094 37.9531C422.969 37.7031 422.859 37.4062 422.766 37.0625C422.641 36.625 422.547 36.1562 422.484 35.6562C422.453 35.1562 422.391 34.6719 422.297 34.2031C422.078 33.1406 421.828 32.0781 421.547 31.0156C421.297 29.9531 420.969 28.9219 420.562 27.9219C420.688 27.7344 420.75 27.5625 420.75 27.4062V27.2656C420.469 26.9531 420.266 26.5781 420.141 26.1406C420.016 25.6719 419.891 25.2188 419.766 24.7812C419.672 24.3125 419.531 23.8906 419.344 23.5156C419.188 23.1094 418.922 22.7812 418.547 22.5312C418.453 22.7188 418.406 22.9375 418.406 23.1875C418.406 23.4062 418.422 23.6094 418.453 23.7969C418.516 23.9844 418.547 24.1875 418.547 24.4062C418.234 24.5625 418 24.8125 417.844 25.1562C417.719 25.4688 417.5 25.7188 417.188 25.9062C416.938 26.9062 416.578 27.8594 416.109 28.7656C415.641 29.6406 415.141 30.5156 414.609 31.3906C414.109 32.2656 413.625 33.1562 413.156 34.0625C412.688 34.9375 412.312 35.8594 412.031 36.8281C411.625 37.1094 411.344 37.4688 411.188 37.9062C411.062 38.3438 411 38.7812 411 39.2188C411.281 39.375 411.594 39.4688 411.938 39.5C412.312 39.5 412.672 39.5 413.016 39.5C413.359 39.5 413.688 39.5312 414 39.5938C414.312 39.6562 414.594 39.8125 414.844 40.0625C415.25 39.9375 415.688 39.8594 416.156 39.8281C416.656 39.7656 417.062 39.625 417.375 39.4062C418 39.625 418.672 39.7344 419.391 39.7344C419.766 39.7344 420.125 39.7031 420.469 39.6406C420.844 39.5781 421.203 39.5 421.547 39.4062C421.828 39.4688 422.047 39.5781 422.203 39.7344C422.359 39.8594 422.594 39.9062 422.906 39.875C423.062 39.75 423.156 39.625 423.188 39.5C423.219 39.3438 423.297 39.2031 423.422 39.0781Z" fill="#D8F2F2"/>
</svg>
