<svg width="29" height="43" viewBox="0 0 29 43" fill="none" xmlns="http://www.w3.org/2000/svg">
<path d="M7.25 43.0001C11.252 43.0001 14.5 39.7894 14.5 35.8334V28.6667H7.25C3.248 28.6667 0 31.8774 0 35.8334C0 39.7894 3.248 43.0001 7.25 43.0001Z" fill="#0ACF83"/>
<path d="M0 21.4999C0 17.5439 3.248 14.3333 7.25 14.3333H14.5V28.6666H7.25C3.248 28.6666 0 25.4559 0 21.4999Z" fill="#A259FF"/>
<path d="M0 7.16667C0 3.21067 3.248 0 7.25 0H14.5V14.3333H7.25C3.248 14.3333 0 11.1227 0 7.16667Z" fill="#F24E1E"/>
<path d="M14.5 0H21.75C25.752 0 29 3.21067 29 7.16667C29 11.1227 25.752 14.3333 21.75 14.3333H14.5V0Z" fill="#FF7262"/>
<path d="M29 21.4999C29 25.4559 25.752 28.6666 21.75 28.6666C17.748 28.6666 14.5 25.4559 14.5 21.4999C14.5 17.5439 17.748 14.3333 21.75 14.3333C25.752 14.3333 29 17.5439 29 21.4999Z" fill="#1ABCFE"/>
</svg>
