<svg width="43" height="43" viewBox="0 0 43 43" fill="none" xmlns="http://www.w3.org/2000/svg">
<path d="M0 0H43V43H0V0Z" fill="#FF0066"/>
<path d="M14.6321 13.8374C15.9921 13.8176 17.0806 12.7024 17.0675 11.3422C17.0542 9.98182 15.9444 8.88801 14.5841 8.89456C13.2237 8.90111 12.1245 10.0055 12.1243 11.3659C12.1254 11.6932 12.1913 12.0171 12.3182 12.3188C12.4451 12.6205 12.6304 12.8942 12.8635 13.1239C13.0966 13.3537 13.3729 13.535 13.6765 13.6575C13.98 13.78 14.3048 13.8412 14.6321 13.8375V13.8374ZM9.43246 27.0695C9.29012 27.678 9.21576 28.3005 9.21075 28.9255C9.21075 31.1012 10.3906 32.5459 12.8983 32.5459C14.9778 32.5459 16.665 31.311 17.8778 29.3159L17.1364 32.2914H21.2643L23.626 22.8314C24.2159 20.4337 25.3579 19.1902 27.0917 19.1902C28.4556 19.1902 29.3037 20.0381 29.3037 21.44C29.3104 21.8893 29.2482 22.3371 29.1196 22.7678L27.9035 27.1177C27.7296 27.7167 27.6427 28.3377 27.6457 28.9615C27.6457 31.0255 28.8617 32.5392 31.4055 32.5392C33.5813 32.5392 35.3151 31.139 36.2732 27.7833L34.6511 27.1555C33.8393 29.4052 33.1394 29.811 32.5871 29.811C32.035 29.811 31.7374 29.4432 31.7374 28.7051C31.7533 28.3179 31.8151 27.9339 31.9215 27.5613L33.1031 23.3217C33.3684 22.4501 33.5052 21.5444 33.5091 20.6332C33.5091 17.4615 31.5912 15.807 29.2676 15.807C27.0917 15.807 24.8799 17.7694 23.7738 19.8352L24.5839 16.1268H18.2801L17.3944 19.3948H20.3459L18.5297 26.6601C17.1019 29.8319 14.4808 29.8834 14.1522 29.8095C13.612 29.6872 13.268 29.4827 13.268 28.7774C13.2838 28.2064 13.3705 27.6397 13.526 27.0901L16.2918 16.1182H9.28801L8.40399 19.3862H11.3159L9.43246 27.0695Z" fill="white"/>
</svg>
