<svg width="43" height="43" viewBox="0 0 43 43" fill="none" xmlns="http://www.w3.org/2000/svg">
<path d="M8.6 0H34.4C36.6809 0 38.8683 0.906069 40.4811 2.51888C42.0939 4.13169 43 6.31914 43 8.6V34.4C43 36.6809 42.0939 38.8683 40.4811 40.4811C38.8683 42.0939 36.6809 43 34.4 43H8.6C6.31914 43 4.13169 42.0939 2.51888 40.4811C0.906069 38.8683 0 36.6809 0 34.4V8.6C0 6.31914 0.906069 4.13169 2.51888 2.51888C4.13169 0.906069 6.31914 0 8.6 0V0ZM8.6 4.3C7.45957 4.3 6.36585 4.75303 5.55944 5.55944C4.75303 6.36585 4.3 7.45957 4.3 8.6V34.4C4.3 35.5404 4.75303 36.6342 5.55944 37.4406C6.36585 38.247 7.45957 38.7 8.6 38.7H34.4C35.5404 38.7 36.6342 38.247 37.4406 37.4406C38.247 36.6342 38.7 35.5404 38.7 34.4V8.6C38.7 7.45957 38.247 6.36585 37.4406 5.55944C36.6342 4.75303 35.5404 4.3 34.4 4.3H8.6ZM11.2424 38.7H8.6C7.99789 38.7005 7.40238 38.5745 6.85205 38.3302C7.33484 36.5139 8.23759 34.8365 9.48752 33.4331C10.7375 32.0296 12.2996 30.9395 14.0481 30.2505C14.3124 30.1377 14.5967 30.0791 14.8841 30.078C15.1715 30.077 15.4561 30.1336 15.7213 30.2444C15.9864 30.3553 16.2267 30.5182 16.4278 30.7235C16.6289 30.9288 16.7868 31.1724 16.8921 31.4397C16.9975 31.7071 17.0482 31.9929 17.0412 32.2802C17.0343 32.5675 16.9697 32.8505 16.8515 33.1124C16.7333 33.3744 16.5638 33.61 16.3529 33.8053C16.1421 34.0006 15.8943 34.1516 15.6241 34.2495C14.6232 34.6438 13.7161 35.2436 12.9614 36.0102C12.2066 36.7768 11.621 37.6931 11.2424 38.7ZM31.6932 38.7C31.2903 37.6877 30.6815 36.7701 29.9054 36.0055C29.1293 35.2409 28.2028 34.6458 27.1846 34.2581C26.9127 34.1637 26.6625 34.0158 26.4489 33.8229C26.2353 33.6301 26.0625 33.3963 25.9409 33.1355C25.8193 32.8747 25.7512 32.5921 25.7409 32.3045C25.7305 32.0169 25.7779 31.7301 25.8805 31.4612C25.983 31.1923 26.1384 30.9466 26.3376 30.7389C26.5368 30.5312 26.7756 30.3656 27.04 30.2519C27.3044 30.1381 27.5889 30.0787 27.8767 30.077C28.1645 30.0753 28.4497 30.1313 28.7154 30.2419C30.4957 30.9201 32.0919 32.0069 33.3754 33.4147C34.6589 34.8226 35.5938 36.5121 36.1049 38.3474C35.5667 38.5804 34.9865 38.7004 34.4 38.7H31.691H31.6932ZM21.5 8.6C23.7809 8.6 25.9683 9.50607 27.5811 11.1189C29.1939 12.7317 30.1 14.9191 30.1 17.2V21.5C30.1 23.7809 29.1939 25.9683 27.5811 27.5811C25.9683 29.1939 23.7809 30.1 21.5 30.1C19.2191 30.1 17.0317 29.1939 15.4189 27.5811C13.8061 25.9683 12.9 23.7809 12.9 21.5V17.2C12.9 14.9191 13.8061 12.7317 15.4189 11.1189C17.0317 9.50607 19.2191 8.6 21.5 8.6ZM21.5 12.9C20.3596 12.9 19.2658 13.353 18.4594 14.1594C17.653 14.9658 17.2 16.0596 17.2 17.2V21.5C17.2 22.6404 17.653 23.7342 18.4594 24.5406C19.2658 25.347 20.3596 25.8 21.5 25.8C22.6404 25.8 23.7342 25.347 24.5406 24.5406C25.347 23.7342 25.8 22.6404 25.8 21.5V17.2C25.8 16.0596 25.347 14.9658 24.5406 14.1594C23.7342 13.353 22.6404 12.9 21.5 12.9Z" fill="#F26363"/>
</svg>
