<svg width="43" height="43" viewBox="0 0 43 43" fill="none" xmlns="http://www.w3.org/2000/svg">
<path d="M5.39362 0C4.19676 0 3.04892 0.475451 2.20261 1.32176C1.3563 2.16807 0.880851 3.31591 0.880851 4.51277V10.5298C0.880851 11.7266 1.3563 12.8745 2.20261 13.7208C3.04892 14.5671 4.19676 15.0426 5.39362 15.0426H6.89787V26.5952C6.67016 26.7278 6.46079 26.8896 6.27511 27.0766L0.880851 32.4709C0.316842 33.035 0 33.8001 0 34.5979C0 35.3956 0.316842 36.1607 0.880851 36.7249L6.27511 42.1192C6.83929 42.6832 7.60438 43 8.40213 43C9.19988 43 9.96496 42.6832 10.5291 42.1192L15.9234 36.7249C16.1129 36.5354 16.2724 36.3248 16.4048 36.1021H27.9574V37.6064C27.9574 38.8032 28.4329 39.9511 29.2792 40.7974C30.1255 41.6437 31.2734 42.1192 32.4702 42.1192H38.4872C39.6841 42.1192 40.8319 41.6437 41.6782 40.7974C42.5245 39.9511 43 38.8032 43 37.6064V31.5894C43 30.3925 42.5245 29.2447 41.6782 28.3984C40.8319 27.552 39.6841 27.0766 38.4872 27.0766H32.4702C31.2734 27.0766 30.1255 27.552 29.2792 28.3984C28.4329 29.2447 27.9574 30.3925 27.9574 31.5894V33.0936H16.4048C16.2722 32.8659 16.1104 32.6565 15.9234 32.4709L10.5291 27.0766C10.3436 26.8895 10.1342 26.7277 9.90638 26.5952V15.0426H11.4106C12.6075 15.0426 13.7553 14.5671 14.6016 13.7208C15.448 12.8745 15.9234 11.7266 15.9234 10.5298V4.51277C15.9234 3.31591 15.448 2.16807 14.6016 1.32176C13.7553 0.475451 12.6075 0 11.4106 0H5.39362ZM3.88936 4.51277C3.88936 4.11381 4.04785 3.7312 4.32995 3.4491C4.61205 3.16699 4.99466 3.00851 5.39362 3.00851H11.4106C11.8096 3.00851 12.1922 3.16699 12.4743 3.4491C12.7564 3.7312 12.9149 4.11381 12.9149 4.51277V10.5298C12.9149 10.9287 12.7564 11.3114 12.4743 11.5935C12.1922 11.8756 11.8096 12.034 11.4106 12.034H5.39362C4.99466 12.034 4.61205 11.8756 4.32995 11.5935C4.04785 11.3114 3.88936 10.9287 3.88936 10.5298V4.51277ZM3.00787 34.5979L8.40213 29.2036L13.7964 34.5979L8.40213 39.9921L3.00787 34.5979ZM32.4702 30.0851H38.4872C38.8862 30.0851 39.2688 30.2436 39.5509 30.5257C39.833 30.8078 39.9915 31.1904 39.9915 31.5894V37.6064C39.9915 38.0053 39.833 38.388 39.5509 38.6701C39.2688 38.9522 38.8862 39.1106 38.4872 39.1106H32.4702C32.0713 39.1106 31.6886 38.9522 31.4065 38.6701C31.1244 38.388 30.966 38.0053 30.966 37.6064V31.5894C30.966 31.1904 31.1244 30.8078 31.4065 30.5257C31.6886 30.2436 32.0713 30.0851 32.4702 30.0851Z" fill="#F26363"/>
</svg>
