<svg width="33" height="33" viewBox="0 0 33 33" fill="none" xmlns="http://www.w3.org/2000/svg">
<path fill-rule="evenodd" clip-rule="evenodd" d="M10.7501 16.125H6.68659C6.29218 16.8081 5.68338 17.342 4.95462 17.6439C4.22585 17.9458 3.41783 17.9987 2.6559 17.7946C1.89396 17.5904 1.22068 17.1405 0.740484 16.5147C0.260284 15.8889 0 15.1221 0 14.3333C0 13.5445 0.260284 12.7777 0.740484 12.1519C1.22068 11.5261 1.89396 11.0763 2.6559 10.8721C3.41783 10.6679 4.22585 10.7209 4.95462 11.0228C5.68338 11.3246 6.29218 11.8585 6.68659 12.5417H10.7501V3.58333C10.7501 2.63297 11.1276 1.72154 11.7996 1.04953C12.4716 0.377529 13.3831 0 14.3334 0H28.6668C29.6171 0 30.5286 0.377529 31.2006 1.04953C31.8726 1.72154 32.2501 2.63297 32.2501 3.58333V28.6667C32.2501 29.617 31.8726 30.5285 31.2006 31.2005C30.5286 31.8725 29.6171 32.25 28.6668 32.25H14.3334C13.3831 32.25 12.4716 31.8725 11.7996 31.2005C11.1276 30.5285 10.7501 29.617 10.7501 28.6667V16.125ZM14.3334 16.125V28.6667H28.6668V3.58333H14.3334V12.5417H18.3969C18.7913 11.8585 19.4001 11.3246 20.1289 11.0228C20.8577 10.7209 21.6657 10.6679 22.4276 10.8721C23.1896 11.0763 23.8628 11.5261 24.343 12.1519C24.8232 12.7777 25.0835 13.5445 25.0835 14.3333C25.0835 15.1221 24.8232 15.8889 24.343 16.5147C23.8628 17.1405 23.1896 17.5904 22.4276 17.7946C21.6657 17.9987 20.8577 17.9458 20.1289 17.6439C19.4001 17.342 18.7913 16.8081 18.3969 16.125H14.3334Z" fill="#F26363"/>
</svg>
